<svg xmlns="http://www.w3.org/2000/svg" width="24" height="24" version="1.1" viewBox="0 0 24 24">
 <path style="opacity:0.2" d="m12 2.5v5h-5l-5 5h5v5l5 5v-5h5l4.5-4.5 0.5-0.5h-5v-5z"/>
 <path style="fill:#7B5A2C" d="m7 7-5 5h10v-5"/>
 <path style="fill:#D33A52" d="m17 7-5-5v10h5"/>
 <path style="fill:#A98745" d="m7 17 5 5v-10h-5"/>
 <path style="fill:#6046A6" d="m17 17 5-5h-10v5"/>
 <path style="opacity:0.2;fill:#F1E8D2" d="m12 12v0.5h9.5l0.5-0.5z"/>
 <path style="fill:#6046A6" d="m17 7-5 5h5z"/>
 <path style="fill:#A98745" d="m7 12v5l5-5z"/>
 <path style="fill:#6046A6" d="m12 12v5h5z"/>
 <path style="fill:#7B5A2C" d="m7 7 5 5v-5z"/>
 <path style="opacity:0.2;fill:#F1E8D2" d="m12 2v0.5l5 5v-0.5zm-5 5-5 5h0.5l4.5-4.5h5v-0.5z"/>
 <path style="opacity:0.2" d="m12 9.5-1 2-2 1 2 1 1 2 1-2 2-1-2-1z"/>
 <path style="fill:#F1E8D2" d="m12 9-1 2-2 1 2 1 1 2 1-2 2-1-2-1z"/>
 <path style="fill:#F1E8D2" d="m9 12 2 1 1 2-0-3z"/>
 <path style="fill:#E6D7A8" d="m15 12-2 1-1 2-0-3z"/>
</svg>
