<svg xmlns="http://www.w3.org/2000/svg" width="24" height="24" version="1">
 <path style="opacity:.2" d="m2 20v0.5c0 0.554 0.446 1 1 1h18c0.554 0 1-0.446 1-1v-0.5c0 0.554-0.446 1-1 1h-18c-0.554 0-1-0.446-1-1z"/>
 <rect style="fill:#2B2238" width="20" height="18" x="2" y="3" rx="1" ry="1"/>
 <path style="opacity:.1;fill:#F1E8D2" d="m3 3c-0.554 0-1 0.446-1 1v0.5c0-0.554 0.446-1 1-1h18c0.554 0 1 0.446 1 1v-0.5c0-0.554-0.446-1-1-1z"/>
 <path style="opacity:.2" d="m10 11.5v1h6v-1z"/>
 <path style="fill:#F1E8D2" d="m10 11v1h6v-1z"/>
 <path style="opacity:.2;fill-rule:evenodd" d="m7.5 5.5-3.5 3.174804 1.5 0.825196-1 3 3.5-3.174805-1.500001-0.825195z"/>
 <path style="fill-rule:evenodd;fill:#F1E8D2" d="m7.5 5-3.5 3.174804 1.5 0.825196-1 3 3.5-3.174805-1.500001-0.825195z"/>
</svg>
