<svg xmlns="http://www.w3.org/2000/svg" width="24" height="24" version="1">
 <rect fill="#7B5A2C" width="20" height="20" x="-22" y="-22" rx="1" ry="1" transform="matrix(0,-1,-1,0,0,0)"/>
 <rect fill="#D33A52" width="2" height="3" x="3" y="2"/>
 <rect fill="#A98745" width="2" height="3" x="5" y="2"/>
 <rect fill="#A98745" width="2" height="3" x="7" y="2"/>
 <rect fill="#6046A6" width="2" height="3" x="9" y="2"/>
 <path fill="#F1E8D2" opacity=".2" d="m3 2c-0.554 0-1 0.446-1 1v0.5c0-0.554 0.446-1 1-1h18c0.554 0 1 0.446 1 1v-0.5c0-0.554-0.446-1-1-1h-18z"/>
 <path opacity=".2" d="m3 22.5c-0.554 0-1-0.446-1-1v-0.5c0 0.554 0.446 1 1 1h18c0.554 0 1-0.446 1-1v0.5c0 0.554-0.446 1-1 1h-18z"/>
 <path fill="#191522" d="m18.5 4a1.5 1.5 0 0 1 1.5 1.5 1.5 1.5 0 0 1 -1.5 1.5 1.5 1.5 0 0 1 -1.5 -1.5 1.5 1.5 0 0 1 1.5 -1.5z"/>
 <path opacity=".2" d="m12 6.5a6 6 0 0 1 6 6 6 6 0 0 1 -6 6 6 6 0 0 1 -6 -6 6 6 0 0 1 6 -6z"/>
 <path fill="#6046A6" d="m12 6a6 6 0 0 1 6 6 6 6 0 0 1 -6 6 6 6 0 0 1 -6 -6 6 6 0 0 1 6 -6z"/>
 <path opacity=".2" d="m12 8.5a4 4 0 0 0 -4 4 4 4 0 0 0 4 4 4 4 0 0 0 4 -4 4 4 0 0 0 -4 -4z"/>
 <path fill="#E6D7A8" d="m12 8a4 4 0 0 0 -4 4 4 4 0 0 0 4 4 4 4 0 0 0 4 -4 4 4 0 0 0 -4 -4z"/>
</svg>
