<svg xmlns="http://www.w3.org/2000/svg" width="24" height="24" version="1">
 <g transform="translate(1,1)">
  <rect fill="#7B5A2C" width="1" height="1" x="10" y="-19" ry="0" transform="scale(1,-1)"/>
  <rect fill="#7B5A2C" width="1" height="1" x="5" y="-19" ry="0" transform="scale(1,-1)"/>
  <rect fill="#7B5A2C" width="1" height="1" x="2" y="-19" ry="0" transform="scale(1,-1)"/>
  <rect fill="#7B5A2C" width="1" height="1" x="3" y="-19" ry="0" transform="scale(1,-1)"/>
  <rect fill="#7B5A2C" width="1" height="1" x="-18" y="7" ry="0" transform="scale(-1,1)"/>
  <rect fill="#191522" width="1" height="1" x="4" y="7" ry="0"/>
  <rect fill="#7B5A2C" width="1" height="1" x="-9" y="7" ry="0" transform="scale(-1,1)"/>
  <rect fill="#7B5A2C" width="1" height="1" x="-8" y="7" ry="0" transform="scale(-1,1)"/>
  <rect fill="#7B5A2C" width="1" height="1" x="-7" y="7" ry="0" transform="scale(-1,1)"/>
  <rect fill="#191522" width="1" height="1" x="-2" y="7" ry="0" transform="scale(-1,1)"/>
  <rect fill="#7B5A2C" width="1" height="1" x="-9" y="6" ry="0" transform="scale(-1,1)"/>
  <rect fill="#191522" width="1" height="1" x="2" y="6" ry="0"/>
  <rect fill="#C4A45A" width="1" height="1" x="-16" y="6" ry="0" transform="scale(-1,1)"/>
  <rect fill="#7B5A2C" width="1" height="1" x="7" y="6" ry="0"/>
  <rect fill="#2B2238" width="1" height="1" x="-2" y="6" ry="0" transform="scale(-1,1)"/>
  <rect fill="#7B5A2C" width="1" height="1" x="1" y="5" ry="0"/>
  <rect fill="#191522" width="1" height="1" x="-8" y="5" ry="0" transform="scale(-1,1)"/>
  <rect fill="#C4A45A" width="1" height="1" x="8" y="5" ry="0"/>
  <rect fill="#A98745" width="1" height="1" x="1" y="2" ry="0"/>
  <rect fill="#A98745" width="1" height="1" x="2" y="2" ry="0"/>
  <rect fill="#A98745" width="1" height="1" x="3" y="2" ry="0"/>
  <rect fill="#A98745" width="1" height="1" x="4" y="2" ry="0"/>
  <rect fill="#A98745" width="1" height="1" x="-14" y="2" ry="0" transform="scale(-1,1)"/>
  <rect fill="#A98745" width="1" height="1" x="-13" y="2" ry="0" transform="scale(-1,1)"/>
  <rect fill="#A98745" width="1" height="1" x="-17" y="5" ry="0" transform="scale(-1,1)"/>
  <rect fill="#A98745" width="1" height="1" x="3" y="5" ry="0"/>
  <rect fill="#A98745" width="1" height="1" x="16" y="6" ry="0"/>
  <rect fill="#A98745" width="1" height="1" x="2" y="5" ry="0"/>
  <rect fill="#A98745" width="1" height="1" x="12" y="1" ry="0"/>
  <rect fill="#A98745" width="1" height="1" x="3" y="1" ry="0"/>
  <rect fill="#A98745" width="1" height="1" x="-5" y="1" ry="0" transform="scale(-1,1)"/>
  <rect fill="#A98745" width="1" height="1" x="-14" y="1" ry="0" transform="scale(-1,1)"/>
  <rect fill="#A98745" width="1" height="1" x="-3" y="1" ry="0" transform="scale(-1,1)"/>
  <path fill="#A98745" d="m2 1s-1 0-1 1h1z"/>
  <rect fill="#7B5A2C" width="1" height="1" x="-10" y="8" ry="0" transform="scale(-1,1)"/>
  <rect fill="#7B5A2C" width="1" height="1" x="5" y="8" ry="0"/>
  <rect fill="#7B5A2C" width="1" height="1" x="2" y="8" ry="0"/>
  <rect fill="#7B5A2C" width="1" height="1" x="3" y="8" ry="0"/>
  <rect fill="#7B5A2C" width="1" height="1" x="-10" y="7" ry="0" transform="scale(-1,1)"/>
  <rect fill="#7B5A2C" width="1" height="1" x="5" y="7" ry="0"/>
  <rect fill="#7B5A2C" width="1" height="1" x="2" y="7" ry="0"/>
  <rect fill="#191522" width="1" height="1" x="3" y="7" ry="0"/>
  <rect fill="#191522" width="1" height="1" x="5" y="6" ry="0"/>
  <rect fill="#7B5A2C" width="1" height="1" x="-7" y="6" ry="0" transform="scale(-1,1)"/>
  <rect fill="#2B2238" width="1" height="1" x="-10" y="6" ry="0" transform="scale(-1,1)"/>
  <rect fill="#7B5A2C" width="1" height="1" x="9" y="5" ry="0"/>
  <rect fill="#A98745" width="1" height="1" x="-6" y="2" ry="0" transform="scale(-1,1)"/>
  <rect fill="#A98745" width="1" height="1" x="14" y="2" ry="0"/>
  <rect fill="#A98745" width="1" height="1" x="15" y="2" ry="0"/>
  <rect fill="#A98745" width="1" height="1" x="11" y="2" ry="0"/>
  <rect fill="#A98745" width="1" height="1" x="-16" y="5" ry="0" transform="scale(-1,1)"/>
  <rect fill="#A98745" width="1" height="1" x="6" y="5" ry="0"/>
  <rect fill="#A98745" width="1" height="1" x="-4" y="6" ry="0" transform="scale(-1,1)"/>
  <rect fill="#A98745" width="1" height="1" x="5" y="5" ry="0"/>
  <rect fill="#A98745" width="1" height="1" x="-12" y="1" ry="0" transform="scale(-1,1)"/>
  <path fill="#A98745" d="m6 1h-1v1h1z"/>
  <rect fill="#A98745" width="1" height="1" x="-15" y="1" ry="0" transform="scale(-1,1)"/>
  <rect fill="#A98745" width="1" height="1" x="15" y="1" ry="0"/>
  <rect fill="#7B5A2C" width="1" height="1" x="1" y="18" ry="0"/>
  <rect fill="#191522" width="1" height="1" x="6" y="18" ry="0"/>
  <rect fill="#7B5A2C" width="1" height="1" x="7" y="18" ry="0"/>
  <rect fill="#2B2238" width="1" height="1" x="-12" y="18" ry="0" transform="scale(-1,1)"/>
  <rect fill="#7B5A2C" width="1" height="1" x="-5" y="18" ry="0" transform="scale(-1,1)"/>
  <rect fill="#191522" width="1" height="1" x="17" y="18" ry="0"/>
  <rect fill="#7B5A2C" width="1" height="1" x="-18" y="9" ry="0" transform="scale(-1,1)"/>
  <rect fill="#191522" width="1" height="1" x="4" y="9" ry="0"/>
  <rect fill="#7B5A2C" width="1" height="1" x="11" y="9" ry="0"/>
  <rect fill="#7B5A2C" width="1" height="1" x="-7" y="9" ry="0" transform="scale(-1,1)"/>
  <rect fill="#191522" width="1" height="1" x="-2" y="9" ry="0" transform="scale(-1,1)"/>
  <rect fill="#7B5A2C" width="1" height="1" x="1" y="-9" ry="0" transform="scale(1,-1)"/>
  <rect fill="#191522" width="1" height="1" x="6" y="-9" ry="0" transform="scale(1,-1)"/>
  <rect fill="#7B5A2C" width="1" height="1" x="7" y="-9" ry="0" transform="scale(1,-1)"/>
  <rect fill="#7B5A2C" width="1" height="1" x="8" y="-9" ry="0" transform="scale(1,-1)"/>
  <rect fill="#7B5A2C" width="1" height="1" x="-5" y="-9" ry="0" transform="scale(-1)"/>
  <rect fill="#191522" width="1" height="1" x="17" y="-9" ry="0" transform="scale(1,-1)"/>
  <rect fill="#191522" width="1" height="1" x="7" y="9" ry="0"/>
  <rect fill="#7B5A2C" width="1" height="1" x="-4" y="9" ry="0" transform="scale(-1,1)"/>
  <rect fill="#2B2238" width="1" height="1" x="5" y="9" ry="0"/>
  <rect fill="#7B5A2C" width="1" height="1" x="2" y="9" ry="0"/>
  <rect fill="#191522" width="1" height="1" x="-11" y="9" ry="0" transform="scale(-1,1)"/>
  <path fill="#7B5A2C" d="m1 20h1v1s-1 0-1-1z"/>
  <rect fill="#191522" width="1" height="1" x="6" y="20" ry="0"/>
  <rect fill="#2B2238" width="1" height="1" x="7" y="20" ry="0"/>
  <rect fill="#7B5A2C" width="1" height="1" x="-18" y="20" ry="0" transform="scale(-1,1)"/>
  <rect fill="#7B5A2C" width="1" height="1" x="-5" y="20" ry="0" transform="scale(-1,1)"/>
  <rect fill="#191522" width="1" height="1" x="11" y="20" ry="0"/>
  <rect fill="#7B5A2C" width="1" height="1" x="-4" y="19" ry="0" transform="scale(-1,1)"/>
  <rect fill="#191522" width="1" height="1" x="-3" y="19" ry="0" transform="scale(-1,1)"/>
  <rect fill="#7B5A2C" width="1" height="1" x="-6" y="19" ry="0" transform="scale(-1,1)"/>
  <rect fill="#7B5A2C" width="1" height="1" x="-11" y="19" ry="0" transform="scale(-1,1)"/>
  <rect fill="#7B5A2C" width="1" height="1" x="5" y="20" ry="0"/>
  <rect fill="#7B5A2C" width="1" height="1" x="2" y="20" ry="0"/>
  <rect fill="#191522" width="1" height="1" x="3" y="20" ry="0"/>
  <rect fill="#7B5A2C" width="1" height="1" x="1" y="19" ry="0"/>
  <rect fill="#191522" width="1" height="1" x="6" y="19" ry="0"/>
  <rect fill="#7B5A2C" width="1" height="1" x="7" y="19" ry="0"/>
  <rect fill="#7B5A2C" width="1" height="1" x="-12" y="19" ry="0" transform="scale(-1,1)"/>
  <rect fill="#7B5A2C" width="1" height="1" x="-5" y="19" ry="0" transform="scale(-1,1)"/>
  <rect fill="#191522" width="1" height="1" x="17" y="19" ry="0"/>
  <rect fill="#7B5A2C" width="1" height="1" x="-19" y="-19" ry="0" transform="scale(-1)"/>
  <rect fill="#7B5A2C" width="1" height="1" x="-17" y="-19" ry="0" transform="scale(-1)"/>
  <rect fill="#7B5A2C" width="1" height="1" x="-16" y="-19" ry="0" transform="scale(-1)"/>
  <rect fill="#7B5A2C" width="1" height="1" x="8" y="-19" ry="0" transform="scale(1,-1)"/>
  <rect fill="#7B5A2C" width="1" height="1" x="-11" y="7" ry="0" transform="scale(-1,1)"/>
  <rect fill="#191522" width="1" height="1" x="19" y="7" ry="0"/>
  <rect fill="#7B5A2C" width="1" height="1" x="20" y="7" ry="0"/>
  <rect fill="#7B5A2C" width="1" height="1" x="-15" y="7" ry="0" transform="scale(-1,1)"/>
  <rect fill="#7B5A2C" width="1" height="1" x="-14" y="7" ry="0" transform="scale(-1,1)"/>
  <rect fill="#191522" width="1" height="1" x="-13" y="7" ry="0" transform="scale(-1,1)"/>
  <rect fill="#7B5A2C" width="1" height="1" x="14" y="6" ry="0"/>
  <rect fill="#191522" width="1" height="1" x="-12" y="6" ry="0" transform="scale(-1,1)"/>
  <rect fill="#C4A45A" width="1" height="1" x="10" y="6" ry="0"/>
  <rect fill="#7B5A2C" width="1" height="1" x="-20" y="6" ry="0" transform="scale(-1,1)"/>
  <rect fill="#2B2238" width="1" height="1" x="12" y="6" ry="0"/>
  <rect fill="#7B5A2C" width="1" height="1" x="-13" y="5" ry="0" transform="scale(-1,1)"/>
  <rect fill="#191522" width="1" height="1" x="19" y="5" ry="0"/>
  <rect fill="#C4A45A" width="1" height="1" x="-15" y="5" ry="0" transform="scale(-1,1)"/>
  <rect fill="#A98745" width="1" height="1" x="8" y="2" ry="0"/>
  <rect fill="#A98745" width="1" height="1" x="9" y="2" ry="0"/>
  <rect fill="#A98745" width="1" height="1" x="10" y="2" ry="0"/>
  <rect fill="#A98745" width="1" height="1" x="-21" y="2" ry="0" transform="scale(-1,1)"/>
  <rect fill="#A98745" width="1" height="1" x="-20" y="2" ry="0" transform="scale(-1,1)"/>
  <rect fill="#A98745" width="1" height="1" x="6" y="2" ry="0"/>
  <rect fill="#A98745" width="1" height="1" x="-21" y="5" ry="0" transform="scale(-1,1)"/>
  <rect fill="#A98745" width="1" height="1" x="-11" y="5" ry="0" transform="scale(-1,1)"/>
  <rect fill="#A98745" width="1" height="1" x="-21" y="6" ry="0" transform="scale(-1,1)"/>
  <rect fill="#A98745" width="1" height="1" x="-12" y="5" ry="0" transform="scale(-1,1)"/>
  <rect fill="#A98745" width="1" height="1" x="-7" y="1" ry="0" transform="scale(-1,1)"/>
  <rect fill="#A98745" width="1" height="1" x="10" y="1" ry="0"/>
  <rect fill="#A98745" width="1" height="1" x="-19" y="1" ry="0" transform="scale(-1,1)"/>
  <rect fill="#A98745" width="1" height="1" x="-20" y="1" ry="0" transform="scale(-1,1)"/>
  <rect fill="#A98745" width="1" height="1" x="-10" y="1" ry="0" transform="scale(-1,1)"/>
  <path fill="#A98745" d="m9 1h-1v1h1z"/>
  <rect fill="#7B5A2C" width="1" height="1" x="-19" y="8" ry="0" transform="scale(-1,1)"/>
  <rect fill="#7B5A2C" width="1" height="1" x="-17" y="8" ry="0" transform="scale(-1,1)"/>
  <rect fill="#7B5A2C" width="1" height="1" x="-16" y="8" ry="0" transform="scale(-1,1)"/>
  <rect fill="#7B5A2C" width="1" height="1" x="-12" y="8" ry="0" transform="scale(-1,1)"/>
  <rect fill="#7B5A2C" width="1" height="1" x="-19" y="7" ry="0" transform="scale(-1,1)"/>
  <rect fill="#7B5A2C" width="1" height="1" x="-17" y="7" ry="0" transform="scale(-1,1)"/>
  <rect fill="#7B5A2C" width="1" height="1" x="-16" y="7" ry="0" transform="scale(-1,1)"/>
  <rect fill="#191522" width="1" height="1" x="-12" y="7" ry="0" transform="scale(-1,1)"/>
  <rect fill="#191522" width="1" height="1" x="-5" y="6" ry="0" transform="scale(-1,1)"/>
  <rect fill="#7B5A2C" width="1" height="1" x="-18" y="6" ry="0" transform="scale(-1,1)"/>
  <rect fill="#2B2238" width="1" height="1" x="13" y="6" ry="0"/>
  <rect fill="#7B5A2C" width="1" height="1" x="-14" y="5" ry="0" transform="scale(-1,1)"/>
  <rect fill="#A98745" width="1" height="1" x="-19" y="2" ry="0" transform="scale(-1,1)"/>
  <rect fill="#A98745" width="1" height="1" x="-18" y="2" ry="0" transform="scale(-1,1)"/>
  <rect fill="#A98745" width="1" height="1" x="-17" y="2" ry="0" transform="scale(-1,1)"/>
  <rect fill="#A98745" width="1" height="1" x="-8" y="2" ry="0" transform="scale(-1,1)"/>
  <rect fill="#A98745" width="1" height="1" x="18" y="5" ry="0"/>
  <rect fill="#A98745" width="1" height="1" x="17" y="5" ry="0"/>
  <rect fill="#A98745" width="1" height="1" x="18" y="6" ry="0"/>
  <rect fill="#A98745" width="1" height="1" x="-5" y="5" ry="0" transform="scale(-1,1)"/>
  <rect fill="#A98745" width="1" height="1" x="7" y="1" ry="0"/>
  <path fill="#A98745" d="m21 2c0-1-1-1-1-1v1h1z"/>
  <rect fill="#A98745" width="1" height="1" x="17" y="1" ry="0"/>
  <rect fill="#A98745" width="1" height="1" x="-17" y="1" ry="0" transform="scale(-1,1)"/>
  <rect fill="#7B5A2C" width="1" height="1" x="12" y="18" ry="0"/>
  <rect fill="#191522" width="1" height="1" x="13" y="18" ry="0"/>
  <rect fill="#7B5A2C" width="1" height="1" x="14" y="18" ry="0"/>
  <rect fill="#2B2238" width="1" height="1" x="-21" y="18" ry="0" transform="scale(-1,1)"/>
  <rect fill="#7B5A2C" width="1" height="1" x="-20" y="18" ry="0" transform="scale(-1,1)"/>
  <rect fill="#191522" width="1" height="1" x="-10" y="18" ry="0" transform="scale(-1,1)"/>
  <rect fill="#7B5A2C" width="1" height="1" x="9" y="9" ry="0"/>
  <rect fill="#191522" width="1" height="1" x="19" y="9" ry="0"/>
  <rect fill="#7B5A2C" width="1" height="1" x="20" y="9" ry="0"/>
  <rect fill="#7B5A2C" width="1" height="1" x="-14" y="9" ry="0" transform="scale(-1,1)"/>
  <rect fill="#191522" width="1" height="1" x="-13" y="9" ry="0" transform="scale(-1,1)"/>
  <rect fill="#7B5A2C" width="1" height="1" x="12" y="-9" ry="0" transform="scale(1,-1)"/>
  <rect fill="#191522" width="1" height="1" x="13" y="-9" ry="0" transform="scale(1,-1)"/>
  <rect fill="#7B5A2C" width="1" height="1" x="14" y="-9" ry="0" transform="scale(1,-1)"/>
  <rect fill="#7B5A2C" width="1" height="1" x="-21" y="-9" ry="0" transform="scale(-1)"/>
  <rect fill="#7B5A2C" width="1" height="1" x="-20" y="-9" ry="0" transform="scale(-1)"/>
  <rect fill="#191522" width="1" height="1" x="10" y="-9" ry="0" transform="scale(1,-1)"/>
  <rect fill="#191522" width="1" height="1" x="14" y="9" ry="0"/>
  <rect fill="#7B5A2C" width="1" height="1" x="-9" y="9" ry="0" transform="scale(-1,1)"/>
  <rect fill="#2B2238" width="1" height="1" x="-17" y="9" ry="0" transform="scale(-1,1)"/>
  <rect fill="#7B5A2C" width="1" height="1" x="-16" y="9" ry="0" transform="scale(-1,1)"/>
  <rect fill="#191522" width="1" height="1" x="18" y="9" ry="0"/>
  <rect fill="#191522" width="1" height="1" x="13" y="20" ry="0"/>
  <rect fill="#2B2238" width="1" height="1" x="14" y="20" ry="0"/>
  <rect fill="#7B5A2C" width="1" height="1" x="9" y="20" ry="0"/>
  <rect fill="#7B5A2C" width="1" height="1" x="-20" y="20" ry="0" transform="scale(-1,1)"/>
  <rect fill="#191522" width="1" height="1" x="-19" y="20" ry="0" transform="scale(-1,1)"/>
  <rect fill="#7B5A2C" width="1" height="1" x="-9" y="19" ry="0" transform="scale(-1,1)"/>
  <rect fill="#191522" width="1" height="1" x="15" y="19" ry="0"/>
  <rect fill="#7B5A2C" width="1" height="1" x="16" y="19" ry="0"/>
  <rect fill="#7B5A2C" width="1" height="1" x="18" y="19" ry="0"/>
  <path fill="#7B5A2C" d="m21 20h-1v1s1 0 1-1z"/>
  <rect fill="#7B5A2C" width="1" height="1" x="-17" y="20" ry="0" transform="scale(-1,1)"/>
  <rect fill="#7B5A2C" width="1" height="1" x="-16" y="20" ry="0" transform="scale(-1,1)"/>
  <rect fill="#191522" width="1" height="1" x="8" y="20" ry="0"/>
  <rect fill="#7B5A2C" width="1" height="1" x="12" y="19" ry="0"/>
  <rect fill="#191522" width="1" height="1" x="13" y="19" ry="0"/>
  <rect fill="#7B5A2C" width="1" height="1" x="14" y="19" ry="0"/>
  <rect fill="#7B5A2C" width="1" height="1" x="-21" y="19" ry="0" transform="scale(-1,1)"/>
  <rect fill="#7B5A2C" width="1" height="1" x="-20" y="19" ry="0" transform="scale(-1,1)"/>
  <rect fill="#191522" width="1" height="1" x="-10" y="19" ry="0" transform="scale(-1,1)"/>
  <rect fill="#191522" width="1" height="1" x="-11" y="20" ry="0" transform="scale(-1,1)"/>
  <rect fill="#7B5A2C" width="1" height="1" x="-13" y="20" ry="0" transform="scale(-1,1)"/>
  <rect fill="#7B5A2C" width="1" height="1" x="-10" y="16" ry="0" transform="scale(-1,1)"/>
  <rect fill="#7B5A2C" width="1" height="1" x="5" y="16" ry="0"/>
  <rect fill="#7B5A2C" width="1" height="1" x="2" y="16" ry="0"/>
  <rect fill="#7B5A2C" width="1" height="1" x="3" y="16" ry="0"/>
  <rect fill="#191522" width="1" height="1" x="4" y="17" ry="0"/>
  <rect fill="#7B5A2C" width="1" height="1" x="11" y="17" ry="0"/>
  <rect fill="#7B5A2C" width="1" height="1" x="-7" y="17" ry="0" transform="scale(-1,1)"/>
  <rect fill="#191522" width="1" height="1" x="-2" y="17" ry="0" transform="scale(-1,1)"/>
  <rect fill="#7B5A2C" width="1" height="1" x="1" y="-17" ry="0" transform="scale(1,-1)"/>
  <rect fill="#191522" width="1" height="1" x="6" y="-17" ry="0" transform="scale(1,-1)"/>
  <rect fill="#7B5A2C" width="1" height="1" x="7" y="-17" ry="0" transform="scale(1,-1)"/>
  <rect fill="#7B5A2C" width="1" height="1" x="8" y="-17" ry="0" transform="scale(1,-1)"/>
  <rect fill="#7B5A2C" width="1" height="1" x="-5" y="-17" ry="0" transform="scale(-1)"/>
  <rect fill="#191522" width="1" height="1" x="7" y="17" ry="0"/>
  <rect fill="#7B5A2C" width="1" height="1" x="-4" y="17" ry="0" transform="scale(-1,1)"/>
  <rect fill="#2B2238" width="1" height="1" x="5" y="17" ry="0"/>
  <rect fill="#7B5A2C" width="1" height="1" x="2" y="17" ry="0"/>
  <rect fill="#191522" width="1" height="1" x="-11" y="17" ry="0" transform="scale(-1,1)"/>
  <rect fill="#7B5A2C" width="1" height="1" x="-12" y="16" ry="0" transform="scale(-1,1)"/>
  <rect fill="#7B5A2C" width="1" height="1" x="9" y="17" ry="0"/>
  <rect fill="#191522" width="1" height="1" x="-13" y="17" ry="0" transform="scale(-1,1)"/>
  <rect fill="#7B5A2C" width="1" height="1" x="12" y="-17" ry="0" transform="scale(1,-1)"/>
  <rect fill="#191522" width="1" height="1" x="10" y="-17" ry="0" transform="scale(1,-1)"/>
  <rect fill="#7B5A2C" width="1" height="1" x="-9" y="17" ry="0" transform="scale(-1,1)"/>
  <rect fill="#7B5A2C" width="1" height="1" x="-18" y="14" ry="0" transform="scale(-1,1)"/>
  <rect fill="#7B5A2C" width="1" height="1" x="13" y="14" ry="0"/>
  <rect fill="#7B5A2C" width="1" height="1" x="10" y="14" ry="0"/>
  <rect fill="#7B5A2C" width="1" height="1" x="11" y="14" ry="0"/>
  <rect fill="#191522" width="1" height="1" x="12" y="15" ry="0"/>
  <rect fill="#7B5A2C" width="1" height="1" x="19" y="15" ry="0"/>
  <rect fill="#7B5A2C" width="1" height="1" x="-15" y="15" ry="0" transform="scale(-1,1)"/>
  <rect fill="#191522" width="1" height="1" x="-10" y="15" ry="0" transform="scale(-1,1)"/>
  <rect fill="#7B5A2C" width="1" height="1" x="9" y="-15" ry="0" transform="scale(1,-1)"/>
  <rect fill="#191522" width="1" height="1" x="14" y="-15" ry="0" transform="scale(1,-1)"/>
  <rect fill="#7B5A2C" width="1" height="1" x="15" y="-15" ry="0" transform="scale(1,-1)"/>
  <rect fill="#7B5A2C" width="1" height="1" x="16" y="-15" ry="0" transform="scale(1,-1)"/>
  <rect fill="#7B5A2C" width="1" height="1" x="-13" y="-15" ry="0" transform="scale(-1)"/>
  <rect fill="#191522" width="1" height="1" x="15" y="15" ry="0"/>
  <rect fill="#7B5A2C" width="1" height="1" x="-12" y="15" ry="0" transform="scale(-1,1)"/>
  <rect fill="#2B2238" width="1" height="1" x="13" y="15" ry="0"/>
  <rect fill="#7B5A2C" width="1" height="1" x="10" y="15" ry="0"/>
  <rect fill="#191522" width="1" height="1" x="-19" y="15" ry="0" transform="scale(-1,1)"/>
  <rect fill="#7B5A2C" width="1" height="1" x="-20" y="14" ry="0" transform="scale(-1,1)"/>
  <rect fill="#7B5A2C" width="1" height="1" x="17" y="15" ry="0"/>
  <rect fill="#191522" width="1" height="1" x="-21" y="15" ry="0" transform="scale(-1,1)"/>
  <rect fill="#7B5A2C" width="1" height="1" x="20" y="-15" ry="0" transform="scale(1,-1)"/>
  <rect fill="#191522" width="1" height="1" x="18" y="-15" ry="0" transform="scale(1,-1)"/>
  <rect fill="#7B5A2C" width="1" height="1" x="-17" y="15" ry="0" transform="scale(-1,1)"/>
  <rect fill="#7B5A2C" width="1" height="1" x="-10" y="12" ry="0" transform="scale(-1,1)"/>
  <rect fill="#7B5A2C" width="1" height="1" x="5" y="12" ry="0"/>
  <rect fill="#7B5A2C" width="1" height="1" x="2" y="12" ry="0"/>
  <rect fill="#7B5A2C" width="1" height="1" x="3" y="12" ry="0"/>
  <rect fill="#7B5A2C" width="1" height="1" x="-18" y="13" ry="0" transform="scale(-1,1)"/>
  <rect fill="#191522" width="1" height="1" x="4" y="13" ry="0"/>
  <rect fill="#7B5A2C" width="1" height="1" x="11" y="13" ry="0"/>
  <rect fill="#7B5A2C" width="1" height="1" x="-7" y="13" ry="0" transform="scale(-1,1)"/>
  <rect fill="#191522" width="1" height="1" x="-2" y="13" ry="0" transform="scale(-1,1)"/>
  <rect fill="#7B5A2C" width="1" height="1" x="1" y="-13" ry="0" transform="scale(1,-1)"/>
  <rect fill="#191522" width="1" height="1" x="6" y="-13" ry="0" transform="scale(1,-1)"/>
  <rect fill="#7B5A2C" width="1" height="1" x="7" y="-13" ry="0" transform="scale(1,-1)"/>
  <rect fill="#7B5A2C" width="1" height="1" x="8" y="-13" ry="0" transform="scale(1,-1)"/>
  <rect fill="#7B5A2C" width="1" height="1" x="-5" y="-13" ry="0" transform="scale(-1)"/>
  <rect fill="#191522" width="1" height="1" x="17" y="-13" ry="0" transform="scale(1,-1)"/>
  <rect fill="#191522" width="1" height="1" x="7" y="13" ry="0"/>
  <rect fill="#7B5A2C" width="1" height="1" x="-4" y="13" ry="0" transform="scale(-1,1)"/>
  <rect fill="#2B2238" width="1" height="1" x="5" y="13" ry="0"/>
  <rect fill="#7B5A2C" width="1" height="1" x="2" y="13" ry="0"/>
  <rect fill="#191522" width="1" height="1" x="-11" y="13" ry="0" transform="scale(-1,1)"/>
  <rect fill="#7B5A2C" width="1" height="1" x="-19" y="12" ry="0" transform="scale(-1,1)"/>
  <rect fill="#7B5A2C" width="1" height="1" x="-17" y="12" ry="0" transform="scale(-1,1)"/>
  <rect fill="#7B5A2C" width="1" height="1" x="-16" y="12" ry="0" transform="scale(-1,1)"/>
  <rect fill="#7B5A2C" width="1" height="1" x="-12" y="12" ry="0" transform="scale(-1,1)"/>
  <rect fill="#7B5A2C" width="1" height="1" x="9" y="13" ry="0"/>
  <rect fill="#191522" width="1" height="1" x="19" y="13" ry="0"/>
  <rect fill="#7B5A2C" width="1" height="1" x="20" y="13" ry="0"/>
  <rect fill="#7B5A2C" width="1" height="1" x="-14" y="13" ry="0" transform="scale(-1,1)"/>
  <rect fill="#191522" width="1" height="1" x="-13" y="13" ry="0" transform="scale(-1,1)"/>
  <rect fill="#7B5A2C" width="1" height="1" x="12" y="-13" ry="0" transform="scale(1,-1)"/>
  <rect fill="#191522" width="1" height="1" x="13" y="-13" ry="0" transform="scale(1,-1)"/>
  <rect fill="#7B5A2C" width="1" height="1" x="14" y="-13" ry="0" transform="scale(1,-1)"/>
  <rect fill="#7B5A2C" width="1" height="1" x="-21" y="-13" ry="0" transform="scale(-1)"/>
  <rect fill="#7B5A2C" width="1" height="1" x="-20" y="-13" ry="0" transform="scale(-1)"/>
  <rect fill="#191522" width="1" height="1" x="10" y="-13" ry="0" transform="scale(1,-1)"/>
  <rect fill="#191522" width="1" height="1" x="14" y="13" ry="0"/>
  <rect fill="#7B5A2C" width="1" height="1" x="-9" y="13" ry="0" transform="scale(-1,1)"/>
  <rect fill="#2B2238" width="1" height="1" x="-17" y="13" ry="0" transform="scale(-1,1)"/>
  <rect fill="#7B5A2C" width="1" height="1" x="-16" y="13" ry="0" transform="scale(-1,1)"/>
  <rect fill="#191522" width="1" height="1" x="18" y="13" ry="0"/>
  <rect fill="#7B5A2C" width="1" height="1" x="12" y="10" ry="0"/>
  <rect fill="#7B5A2C" width="1" height="1" x="-17" y="10" ry="0" transform="scale(-1,1)"/>
  <rect fill="#7B5A2C" width="1" height="1" x="-20" y="10" ry="0" transform="scale(-1,1)"/>
  <rect fill="#7B5A2C" width="1" height="1" x="-19" y="10" ry="0" transform="scale(-1,1)"/>
  <rect fill="#7B5A2C" width="1" height="1" x="4" y="11" ry="0"/>
  <rect fill="#191522" width="1" height="1" x="-18" y="11" ry="0" transform="scale(-1,1)"/>
  <rect fill="#7B5A2C" width="1" height="1" x="-11" y="11" ry="0" transform="scale(-1,1)"/>
  <rect fill="#7B5A2C" width="1" height="1" x="15" y="11" ry="0"/>
  <rect fill="#191522" width="1" height="1" x="20" y="11" ry="0"/>
  <rect fill="#7B5A2C" width="1" height="1" x="-21" y="-11" ry="0" transform="scale(-1)"/>
  <rect fill="#191522" width="1" height="1" x="-16" y="-11" ry="0" transform="scale(-1)"/>
  <rect fill="#7B5A2C" width="1" height="1" x="-15" y="-11" ry="0" transform="scale(-1)"/>
  <rect fill="#7B5A2C" width="1" height="1" x="-14" y="-11" ry="0" transform="scale(-1)"/>
  <rect fill="#7B5A2C" width="1" height="1" x="17" y="-11" ry="0" transform="scale(1,-1)"/>
  <rect fill="#191522" width="1" height="1" x="-5" y="-11" ry="0" transform="scale(-1)"/>
  <rect fill="#191522" width="1" height="1" x="-15" y="11" ry="0" transform="scale(-1,1)"/>
  <rect fill="#7B5A2C" width="1" height="1" x="18" y="11" ry="0"/>
  <rect fill="#2B2238" width="1" height="1" x="-17" y="11" ry="0" transform="scale(-1,1)"/>
  <rect fill="#7B5A2C" width="1" height="1" x="-20" y="11" ry="0" transform="scale(-1,1)"/>
  <rect fill="#191522" width="1" height="1" x="11" y="11" ry="0"/>
  <rect fill="#7B5A2C" width="1" height="1" x="3" y="10" ry="0"/>
  <rect fill="#7B5A2C" width="1" height="1" x="5" y="10" ry="0"/>
  <rect fill="#7B5A2C" width="1" height="1" x="6" y="10" ry="0"/>
  <rect fill="#7B5A2C" width="1" height="1" x="10" y="10" ry="0"/>
  <rect fill="#7B5A2C" width="1" height="1" x="-13" y="11" ry="0" transform="scale(-1,1)"/>
  <rect fill="#191522" width="1" height="1" x="-3" y="11" ry="0" transform="scale(-1,1)"/>
  <rect fill="#7B5A2C" width="1" height="1" x="-2" y="11" ry="0" transform="scale(-1,1)"/>
  <rect fill="#7B5A2C" width="1" height="1" x="8" y="11" ry="0"/>
  <rect fill="#191522" width="1" height="1" x="9" y="11" ry="0"/>
  <rect fill="#7B5A2C" width="1" height="1" x="-10" y="-11" ry="0" transform="scale(-1)"/>
  <rect fill="#191522" width="1" height="1" x="-9" y="-11" ry="0" transform="scale(-1)"/>
  <rect fill="#7B5A2C" width="1" height="1" x="-8" y="-11" ry="0" transform="scale(-1)"/>
  <rect fill="#7B5A2C" width="1" height="1" x="1" y="-11" ry="0" transform="scale(1,-1)"/>
  <rect fill="#7B5A2C" width="1" height="1" x="2" y="-11" ry="0" transform="scale(1,-1)"/>
  <rect fill="#191522" width="1" height="1" x="-12" y="-11" ry="0" transform="scale(-1)"/>
  <rect fill="#191522" width="1" height="1" x="-8" y="11" ry="0" transform="scale(-1,1)"/>
  <rect fill="#7B5A2C" width="1" height="1" x="13" y="11" ry="0"/>
  <rect fill="#2B2238" width="1" height="1" x="5" y="11" ry="0"/>
  <rect fill="#7B5A2C" width="1" height="1" x="6" y="11" ry="0"/>
  <rect fill="#191522" width="1" height="1" x="-4" y="11" ry="0" transform="scale(-1,1)"/>
  <rect fill="#191522" width="1" height="1" x="1" y="15" ry="0"/>
  <rect fill="#2B2238" width="1" height="1" x="2" y="15" ry="0"/>
  <rect fill="#191522" width="1" height="1" x="6" y="15" ry="0"/>
  <rect fill="#191522" width="1" height="1" x="8" y="15" ry="0"/>
  <rect fill="#7B5A2C" width="1" height="1" x="4" y="15" ry="0"/>
  <rect fill="#191522" width="1" height="1" x="3" y="15" ry="0"/>
  <rect fill="#191522" width="1" height="1" x="-6" y="15" ry="0" transform="scale(-1,1)"/>
  <rect fill="#7B5A2C" width="1" height="1" x="-8" y="15" ry="0" transform="scale(-1,1)"/>
  <rect fill="#A98745" width="1" height="1" x="16" y="3" ry="0"/>
  <rect fill="#A98745" width="1" height="1" x="17" y="3" ry="0"/>
  <rect fill="#A98745" width="1" height="1" x="18" y="3" ry="0"/>
  <rect fill="#A98745" width="1" height="1" x="19" y="3" ry="0"/>
  <rect fill="#A98745" width="1" height="1" x="15" y="3" ry="0"/>
  <rect fill="#A98745" width="1" height="1" x="1" y="3" ry="0"/>
  <rect fill="#A98745" width="1" height="1" x="-21" y="3" ry="0" transform="scale(-1,1)"/>
  <rect fill="#A98745" width="1" height="1" x="-15" y="3" ry="0" transform="scale(-1,1)"/>
  <rect fill="#A98745" width="1" height="1" x="-14" y="3" ry="0" transform="scale(-1,1)"/>
  <rect fill="#A98745" width="1" height="1" x="-3" y="3" ry="0" transform="scale(-1,1)"/>
  <rect fill="#A98745" width="1" height="1" x="-6" y="3" ry="0" transform="scale(-1,1)"/>
  <rect fill="#A98745" width="1" height="1" x="-5" y="3" ry="0" transform="scale(-1,1)"/>
  <rect fill="#A98745" width="1" height="1" x="-4" y="3" ry="0" transform="scale(-1,1)"/>
  <rect fill="#A98745" width="1" height="1" x="8" y="3" ry="0"/>
  <rect fill="#A98745" width="1" height="1" x="9" y="3" ry="0"/>
  <rect fill="#A98745" width="1" height="1" x="-8" y="3" ry="0" transform="scale(-1,1)"/>
  <rect fill="#A98745" width="1" height="1" x="10" y="3" ry="0"/>
  <rect fill="#A98745" width="1" height="1" x="11" y="3" ry="0"/>
  <rect fill="#A98745" width="1" height="1" x="12" y="3" ry="0"/>
  <rect fill="#A98745" width="1" height="1" x="6" y="3" ry="0"/>
  <rect fill="#A98745" width="1" height="1" x="-21" y="4" ry="0" transform="scale(-1,1)"/>
  <rect fill="#A98745" width="1" height="1" x="-20" y="4" ry="0" transform="scale(-1,1)"/>
  <rect fill="#A98745" width="1" height="1" x="-19" y="4" ry="0" transform="scale(-1,1)"/>
  <rect fill="#A98745" width="1" height="1" x="-18" y="4" ry="0" transform="scale(-1,1)"/>
  <rect fill="#A98745" width="1" height="1" x="8" y="4" ry="0"/>
  <rect fill="#A98745" width="1" height="1" x="9" y="4" ry="0"/>
  <rect fill="#A98745" width="1" height="1" x="16" y="4" ry="0"/>
  <rect fill="#A98745" width="1" height="1" x="-8" y="4" ry="0" transform="scale(-1,1)"/>
  <rect fill="#A98745" width="1" height="1" x="-7" y="4" ry="0" transform="scale(-1,1)"/>
  <rect fill="#A98745" width="1" height="1" x="-11" y="4" ry="0" transform="scale(-1,1)"/>
  <rect fill="#A98745" width="1" height="1" x="-14" y="4" ry="0" transform="scale(-1,1)"/>
  <rect fill="#A98745" width="1" height="1" x="-13" y="4" ry="0" transform="scale(-1,1)"/>
  <rect fill="#A98745" width="1" height="1" x="-12" y="4" ry="0" transform="scale(-1,1)"/>
  <rect fill="#A98745" width="1" height="1" x="1" y="4" ry="0"/>
  <rect fill="#A98745" width="1" height="1" x="2" y="4" ry="0"/>
  <rect fill="#A98745" width="1" height="1" x="-16" y="4" ry="0" transform="scale(-1,1)"/>
  <rect fill="#A98745" width="1" height="1" x="3" y="4" ry="0"/>
  <rect fill="#A98745" width="1" height="1" x="4" y="4" ry="0"/>
  <rect fill="#A98745" width="1" height="1" x="5" y="4" ry="0"/>
  <rect fill="#A98745" width="1" height="1" x="14" y="4" ry="0"/>
  <rect fill="#7B5A2C" width="1" height="1" x="-19" y="16" ry="0" transform="scale(-1,1)"/>
  <rect fill="#7B5A2C" width="1" height="1" x="14" y="16" ry="0"/>
  <rect fill="#191522" width="1" height="1" x="13" y="17" ry="0"/>
  <rect fill="#7B5A2C" width="1" height="1" x="20" y="17" ry="0"/>
  <rect fill="#7B5A2C" width="1" height="1" x="-16" y="17" ry="0" transform="scale(-1,1)"/>
  <rect fill="#191522" width="1" height="1" x="15" y="-17" ry="0" transform="scale(1,-1)"/>
  <rect fill="#7B5A2C" width="1" height="1" x="16" y="-17" ry="0" transform="scale(1,-1)"/>
  <rect fill="#7B5A2C" width="1" height="1" x="17" y="-17" ry="0" transform="scale(1,-1)"/>
  <rect fill="#7B5A2C" width="1" height="1" x="-14" y="-17" ry="0" transform="scale(-1)"/>
  <rect fill="#191522" width="1" height="1" x="16" y="17" ry="0"/>
  <rect fill="#2B2238" width="1" height="1" x="14" y="17" ry="0"/>
  <rect fill="#191522" width="1" height="1" x="-20" y="17" ry="0" transform="scale(-1,1)"/>
  <rect fill="#7B5A2C" width="1" height="1" x="-21" y="16" ry="0" transform="scale(-1,1)"/>
  <rect fill="#7B5A2C" width="1" height="1" x="18" y="17" ry="0"/>
  <rect fill="#191522" width="1" height="1" x="19" y="-17" ry="0" transform="scale(1,-1)"/>
  <rect fill="#7B5A2C" width="1" height="1" x="-18" y="17" ry="0" transform="scale(-1,1)"/>
  <rect fill="#7B5A2C" width="1" height="1" x="-6" y="14" ry="0" transform="scale(-1,1)"/>
  <rect fill="#191522" width="1" height="1" x="7" y="14" ry="0"/>
  <rect fill="#7B5A2C" width="1" height="1" x="8" y="14" ry="0"/>
  <rect fill="#7B5A2C" width="1" height="1" x="-2" y="14" ry="0" transform="scale(-1,1)"/>
  <rect fill="#191522" width="1" height="1" x="2" y="14" ry="0"/>
  <rect fill="#2B2238" width="1" height="1" x="-5" y="14" ry="0" transform="scale(-1,1)"/>
  <rect fill="#7B5A2C" width="1" height="1" x="-4" y="14" ry="0" transform="scale(-1,1)"/>
  <rect fill="#191522" width="1" height="1" x="6" y="14" ry="0"/>
  <path fill="#F1E8D2" opacity=".2" d="m2 1c-0.554 0-1 0.446-1 1v0.5c0-0.554 0.446-1 1-1h18c0.554 0 1 0.446 1 1v-0.5c0-0.554-0.446-1-1-1h-18z"/>
  <path opacity=".2" d="m1 20v0.5c0 0.554 0.446 1 1 1h18c0.554 0 1-0.446 1-1v-0.5c0 0.554-0.446 1-1 1h-18c-0.554 0-1-0.446-1-1z"/>
 </g>
</svg>
