<svg xmlns="http://www.w3.org/2000/svg" width="64" height="48" viewBox="0 0 64 48">
  <rect id="hint-stretch-borders" x="-8" y="-8" width="4" height="4" opacity="0.01"/>
  <rect id="hint-top-margin" x="28" y="0" width="8" height="12" opacity="0.01"/>
  <rect id="hint-bottom-margin" x="28" y="36" width="8" height="12" opacity="0.01"/>
  <rect id="hint-left-margin" x="0" y="20" width="12" height="8" opacity="0.01"/>
  <rect id="hint-right-margin" x="52" y="20" width="12" height="8" opacity="0.01"/>
  <rect id="center" x="14" y="12" width="36" height="24" fill="#0D0B12" fill-opacity="0.44"/>
  <rect id="top" x="14" y="8" width="36" height="4" fill="#0D0B12" fill-opacity="0.44"/>
  <rect id="bottom" x="14" y="36" width="36" height="4" fill="#0D0B12" fill-opacity="0.44"/>
  <rect id="left" x="10" y="14" width="4" height="20" fill="#0D0B12" fill-opacity="0.44"/>
  <rect id="right" x="50" y="14" width="4" height="20" fill="#0D0B12" fill-opacity="0.44"/>
  <path id="topleft" d="M14 8h-1a3 3 0 0 0-3 3v3h4z" fill="#0D0B12" fill-opacity="0.44"/>
  <path id="topright" d="M50 8h1a3 3 0 0 1 3 3v3h-4z" fill="#0D0B12" fill-opacity="0.44"/>
  <path id="bottomleft" d="M10 34v3a3 3 0 0 0 3 3h1v-6z" fill="#0D0B12" fill-opacity="0.44"/>
  <path id="bottomright" d="M50 34v6h1a3 3 0 0 0 3-3v-3z" fill="#0D0B12" fill-opacity="0.44"/>
  <path d="M14 8h36M16 39.5h32" stroke="#6046A6" stroke-opacity="0.10" fill="none"/>
</svg>
