<svg xmlns="http://www.w3.org/2000/svg" width="64" height="64" version="1">
 <rect style="opacity:0.2" width="6" height="58" x="-56" y="-61" rx="2.5" ry="2.5" transform="matrix(0,-1,-1,0,0,0)"/>
 <rect style="fill:#6046A6" width="6" height="58" x="-55" y="-61" rx="2.5" ry="2.5" transform="matrix(0,-1,-1,0,0,0)"/>
 <rect style="opacity:0.2" width="52" height="40" x="6" y="10" rx="2.5" ry="2.5"/>
 <rect style="fill:#2B2238" width="52" height="40" x="6" y="9" rx="2.5" ry="2.5"/>
 <rect style="opacity:0.4" width="44" height="32" x="10" y="13"/>
 <path style="opacity:0.1;fill:#F1E8D2" d="M 8.5,9 C 7.115,9 6,10.115 6,11.5 V 12.5 C 6,11.115 7.115,10 8.5,10 H 55.5 C 56.88,10 58,11.115 58,12.5 V 11.5 C 58,10.115 56.88,9 55.5,9 Z"/>
 <rect style="opacity:0.1;fill:#F1E8D2" width="44" height="1" x="10" y="45"/>
</svg>
