<svg xmlns="http://www.w3.org/2000/svg" width="32" height="32" version="1">
 <rect fill="#9E102B" width="28" height="28" x="-30" y="-30" rx="1.4" ry="1.4" transform="matrix(0,-1,-1,0,0,0)"/>
 <path opacity=".2" d="m8 5v16l8 8 8-8h-8l8-8h-8l8-8h-16z"/>
 <path fill="#F1E8D2" d="m24 20h-8v8z"/>
 <path fill="#F1E8D2" d="m24 12h-8v8z"/>
 <path fill="#D33A52" d="m24 4h-8v8z"/>
 <path fill="#E6D7A8" d="m8 20h8v8z"/>
 <rect fill="#E6D7A8" width="8" height="16" x="8" y="4"/>
 <path fill="#F1E8D2" opacity=".2" d="m3.4004 2c-0.7756 0-1.4004 0.6248-1.4004 1.4004v1c0-0.7756 0.6248-1.4004 1.4004-1.4004h25.2c0.775 0 1.4 0.6248 1.4 1.4004v-1c0-0.7756-0.625-1.4004-1.4-1.4004h-25.2z"/>
 <path opacity=".2" d="m2 28.6v1c0 0.775 0.6248 1.4 1.4004 1.4h25.2c0.775 0 1.4-0.625 1.4-1.4v-1c0 0.775-0.625 1.4-1.4 1.4h-25.2c-0.7752 0-1.4-0.625-1.4-1.4z"/>
</svg>
