<svg xmlns="http://www.w3.org/2000/svg" width="32" height="32" version="1">
 <rect fill="#E6D7A8" width="28" height="28" x="-30" y="-30" rx="1.5" ry="1.5" transform="matrix(0,-1,-1,0,0,0)"/>
 <path fill="#F1E8D2" opacity=".1" d="m3.5 2c-0.831 0-1.5 0.669-1.5 1.5v1c0-0.831 0.669-1.5 1.5-1.5h25c0.831 0 1.5 0.669 1.5 1.5v-1c0-0.831-0.669-1.5-1.5-1.5h-25z"/>
 <path opacity=".2" d="m2 28.5v1c0 0.831 0.669 1.5 1.5 1.5h25c0.831 0 1.5-0.669 1.5-1.5v-1c0 0.831-0.669 1.5-1.5 1.5h-25c-0.831 0-1.5-0.669-1.5-1.5z"/>
 <circle fill="#6046A6" cx="6.5" cy="19.5" r="1.5"/>
 <circle fill="#6046A6" cx="15.5" cy="19.5" r="1.5"/>
 <circle fill="#6046A6" cx="15.5" cy="13.5" r="1.5"/>
 <circle fill="#6046A6" cx="25.5" cy="13.5" r="1.5"/>
 <path fill="#6046A6" d="m15 13v6h-9v1h10v-6h10v-1h-10z"/>
</svg>
