<svg xmlns="http://www.w3.org/2000/svg" width="64" height="64" version="1.1" viewBox="0 0 64 64">
 <path style="opacity:0.2" d="m32 5v14h-14l-14 14h14v14l14 14v-14h14l14-14h-14v-14z"/>
 <path style="fill:#7B5A2C" d="m32 32-28 0 14-14h14"/>
 <path style="fill:#D33A52" d="m32 32-0-28 14 14v14"/>
 <path style="fill:#A98745" d="m18 32v14l14 14 0-28"/>
 <path style="fill:#6046A6" d="m32 32 28 0l-14 14h-14"/>
 <path style="opacity:0.2;fill:#F1E8D2" d="m32 32v1h27l1-1h-28z"/>
 <path style="fill:#6046A6" d="m32 32 14-14v14z"/>
 <path style="fill:#A98745" d="m32 32-14 14l0-14z"/>
 <path style="fill:#6046A6" d="m46 46-14-14v14z"/>
 <path style="fill:#7B5A2C" d="m18 18 14 14v-14z"/>
 <path style="opacity:0.2;fill:#F1E8D2" d="m32 4v1l14 14v-1l-14-14zm-14 14l-14 14h1l13-13h14v-1h-14z"/>
 <path style="opacity:0.2" d="m32 26-2.5 5.5-5.5 2.5 5.5 2.5 2.5 5.5 2.5-5.5 5.5-2.5-5.5-2.5z"/>
 <path style="fill:#F1E8D2" d="m32 24-2.5 5.5-5.5 2.5 5.5 2.5 2.5 5.5 2.5-5.5 5.5-2.5-5.5-2.5z"/>
 <path style="fill:#F1E8D2" d="m24 32 5.5 2.5 2.5 5.5v-8z"/>
 <path style="fill:#E6D7A8" d="m40 32-5.5 2.5-2.5 5.5v-8z"/>
</svg>
