<svg xmlns="http://www.w3.org/2000/svg" width="64" height="64" version="1">
 <rect style="opacity:.2" width="56" height="56" x="-61" y="-60" rx="3" ry="3" transform="matrix(0,-1,-1,0,0,0)"/>
 <rect style="fill:#6046A6" width="56" height="56" x="-60" y="-60" rx="3" ry="3" transform="matrix(0,-1,-1,0,0,0)"/>
 <path style="opacity:.2;fill:#F1E8D2" d="m7 4c-1.662 0-3 1.338-3 3v1c0-1.662 1.338-3 3-3h50c1.662 0 3 1.338 3 3v-1c0-1.662-1.338-3-3-3h-50z"/>
 <path style="stroke:#F1E8D2;stroke-width:4;stroke-linecap:square;fill:none" d="m27 35a16 16 0 0 1 16 -16"/>
 <path style="stroke:#F1E8D2;stroke-width:4;stroke-linecap:square;fill:none" d="m35 35a8 8 0 0 1 8 -8"/>
 <path style="stroke:#F1E8D2;stroke-width:4;stroke-linecap:square;fill:none" d="m19 35a24 24 0 0 1 24 -24"/>
 <rect style="fill:#F1E8D2" width="6" height="12" x="41" y="43"/>
 <circle style="fill:#F1E8D2" cx="44" cy="36" r="3"/>
</svg>
