<svg xmlns="http://www.w3.org/2000/svg" width="48" height="48" version="1">
 <path opacity=".2" d="m8 41v2c0 1.108 0.892 2 2 2h28c1.108 0 2-0.892 2-2v-2c0 1.108-0.892 2-2 2h-28c-1.108 0-2-0.892-2-2z"/>
 <path fill="#2B2238" d="m40 42v-32c0-1.108-0.892-2-2-2h-28c-1.108 0-2 0.892-2 2v32c0 1.108 0.892 2 2 2h28c1.108 0 2-0.892 2-2z"/>
 <rect fill="#6046A6" width="20" height="4" x="14" y="4"/>
 <rect fill="#C4A45A" width="26" height="8" x="11" y="31"/>
 <rect style="opacity:0.4" width="26" height="8" x="11" y="21"/>
 <rect style="opacity:0.4" width="26" height="8" x="11" y="11"/>
 <path fill="#F1E8D2" opacity=".2" d="m14 4v1h20v-1h-20z"/>
 <path opacity=".2" d="m35.999 27c-5.539 0-9.999 4.46-9.999 10s4.4596 10 9.9991 10 9.9991-4.46 9.9991-10-4.459-10-9.999-10z"/>
 <path fill="#A98745" d="m35.999 26c-5.539 0-9.999 4.46-9.999 10s4.4596 10 9.9991 10 9.9991-4.46 9.9991-10-4.459-10-9.999-10z"/>
 <path fill="#191522" d="m35.999 30v4h4l-5 8v-4h-4z"/>
</svg>
