<svg xmlns="http://www.w3.org/2000/svg" width="48" height="48" version="1">
 <path opacity=".2" d="m8 41v2c0 1.108 0.892 2 2 2h28c1.108 0 2-0.892 2-2v-2c0 1.108-0.892 2-2 2h-28c-1.108 0-2-0.892-2-2z"/>
 <path fill="#E6D7A8" d="m-42-40h32c1.108 0 2 0.892 2 2v28c0 1.108-0.892 2-2 2h-32c-1.108 0-2-0.892-2-2v-28c0-1.108 0.892-2 2-2z" transform="matrix(0,-1,-1,0,0,0)"/>
 <rect fill="#E6D7A8" width="20" height="4" x="14" y="4"/>
 <rect fill="#F1E8D2" opacity=".2" width="26" height="8" x="11" y="32"/>
 <rect fill="#9E102B" width="26" height="8" x="11" y="31"/>
 <rect fill="#F1E8D2" opacity=".2" width="26" height="8" x="11" y="22"/>
 <rect fill="#2B2238" width="26" height="8" x="11" y="21"/>
 <rect fill="#F1E8D2" opacity=".2" width="26" height="8" x="11" y="12"/>
 <rect fill="#2B2238" width="26" height="8" x="11" y="11"/>
 <path fill="#F1E8D2" opacity=".2" d="m14 4v1h20v-1h-20z"/>
 <path fill="#F1E8D2" opacity=".1" d="m10 8c-1.108 0-2 0.892-2 2v1c0-1.108 0.892-2 2-2h28c1.108 0 2 0.892 2 2v-1c0-1.108-0.892-2-2-2h-28z"/>
</svg>
