<svg xmlns="http://www.w3.org/2000/svg" width="154" height="44" viewBox="0 0 154 44">
  <defs>
    <style id="current-color-scheme" type="text/css">
      .ColorScheme-Text { color:#C4A45A; }
      .ColorScheme-Highlight { color:#6046A6; }
    </style>
  </defs>
  <g id="network-bluetooth" transform="translate(0 0)">
    <rect width="22" height="22" fill="none"/>
    <path class="ColorScheme-Text" fill="currentColor" d="M10 3h1.1l4.1 4-3.8 4 3.8 4-4.1 4H10v-6.1l-3.7 3.3-1.1-1.2L9.7 11 5.2 7l1.1-1.2L10 9.1V3Zm1.6 3.1v3l1.5-1.5-1.5-1.5Zm0 6.8v3l1.5-1.5-1.5-1.5Z"/>
  </g>
  <g id="network-bluetooth-activated" transform="translate(22 0)">
    <rect width="22" height="22" fill="none"/>
    <path class="ColorScheme-Text" fill="currentColor" d="M10 3h1.1l4.1 4-3.8 4 3.8 4-4.1 4H10v-6.1l-3.7 3.3-1.1-1.2L9.7 11 5.2 7l1.1-1.2L10 9.1V3Zm1.6 3.1v3l1.5-1.5-1.5-1.5Zm0 6.8v3l1.5-1.5-1.5-1.5Z"/>
    <path class="ColorScheme-Highlight" fill="none" stroke="currentColor" stroke-width="1.25" stroke-linecap="round" d="M16.2 7.4c1 .8 1.6 2.1 1.6 3.6s-.6 2.8-1.6 3.6M18.5 5.3c1.6 1.4 2.5 3.4 2.5 5.7s-.9 4.3-2.5 5.7"/>
  </g>
  <g id="network-bluetooth-inactive" transform="translate(44 0)" opacity=".58">
    <rect width="22" height="22" fill="none"/>
    <path class="ColorScheme-Text" fill="currentColor" d="M10 3h1.1l4.1 4-3.8 4 3.8 4-4.1 4H10v-6.1l-3.7 3.3-1.1-1.2L9.7 11 5.2 7l1.1-1.2L10 9.1V3Zm1.6 3.1v3l1.5-1.5-1.5-1.5Zm0 6.8v3l1.5-1.5-1.5-1.5Z"/>
  </g>
  <g id="network-bluetooth-activated-locked" transform="translate(66 0)">
    <rect width="22" height="22" fill="none"/>
    <path class="ColorScheme-Text" fill="currentColor" d="M8 3h1.1l4.1 4-3.8 4 3.8 4-4.1 4H8v-6.1l-3.7 3.3-1.1-1.2L7.7 11 3.2 7l1.1-1.2L8 9.1V3Zm1.6 3.1v3l1.5-1.5-1.5-1.5Zm0 6.8v3l1.5-1.5-1.5-1.5Z"/>
    <path class="ColorScheme-Highlight" fill="currentColor" d="M16.5 10c1.1 0 2 .9 2 2v1h.7v5h-5.4v-5h.7v-1c0-1.1.9-2 2-2Zm-1 3h2v-1c0-.55-.45-1-1-1s-1 .45-1 1v1Z"/>
  </g>
  <g id="network-wireless-bluetooth" transform="translate(0 22)">
    <rect width="22" height="22" fill="none"/>
    <path class="ColorScheme-Text" fill="currentColor" d="M10 3h1.1l4.1 4-3.8 4 3.8 4-4.1 4H10v-6.1l-3.7 3.3-1.1-1.2L9.7 11 5.2 7l1.1-1.2L10 9.1V3Zm1.6 3.1v3l1.5-1.5-1.5-1.5Zm0 6.8v3l1.5-1.5-1.5-1.5Z"/>
  </g>
  <g id="network-bluetooth-symbolic" transform="translate(22 22)">
    <rect width="22" height="22" fill="none"/>
    <path class="ColorScheme-Text" fill="currentColor" d="M10 3h1.1l4.1 4-3.8 4 3.8 4-4.1 4H10v-6.1l-3.7 3.3-1.1-1.2L9.7 11 5.2 7l1.1-1.2L10 9.1V3Zm1.6 3.1v3l1.5-1.5-1.5-1.5Zm0 6.8v3l1.5-1.5-1.5-1.5Z"/>
  </g>
  <g id="network-bluetooth-activated-symbolic" transform="translate(44 22)">
    <rect width="22" height="22" fill="none"/>
    <path class="ColorScheme-Text" fill="currentColor" d="M10 3h1.1l4.1 4-3.8 4 3.8 4-4.1 4H10v-6.1l-3.7 3.3-1.1-1.2L9.7 11 5.2 7l1.1-1.2L10 9.1V3Zm1.6 3.1v3l1.5-1.5-1.5-1.5Zm0 6.8v3l1.5-1.5-1.5-1.5Z"/>
    <circle class="ColorScheme-Highlight" cx="17" cy="5" r="2" fill="currentColor"/>
  </g>
  <g id="network-bluetooth-inactive-symbolic" transform="translate(66 22)" opacity=".58">
    <rect width="22" height="22" fill="none"/>
    <path class="ColorScheme-Text" fill="currentColor" d="M10 3h1.1l4.1 4-3.8 4 3.8 4-4.1 4H10v-6.1l-3.7 3.3-1.1-1.2L9.7 11 5.2 7l1.1-1.2L10 9.1V3Zm1.6 3.1v3l1.5-1.5-1.5-1.5Zm0 6.8v3l1.5-1.5-1.5-1.5Z"/>
  </g>
  <g id="network-wireless-bluetooth-symbolic" transform="translate(88 22)">
    <rect width="22" height="22" fill="none"/>
    <path class="ColorScheme-Text" fill="currentColor" d="M10 3h1.1l4.1 4-3.8 4 3.8 4-4.1 4H10v-6.1l-3.7 3.3-1.1-1.2L9.7 11 5.2 7l1.1-1.2L10 9.1V3Zm1.6 3.1v3l1.5-1.5-1.5-1.5Zm0 6.8v3l1.5-1.5-1.5-1.5Z"/>
  </g>
</svg>
