<svg xmlns="http://www.w3.org/2000/svg" width="16" height="16" viewBox="0 0 16 16">
  <g id="active-center">
    <rect x="0" y="0" width="16" height="16" fill="#000000" opacity="0.01"/>
    <path d="M4 6h6v6H4zM6 4h6v6" fill="none" stroke="#6046A6" stroke-width="1.3" stroke-linejoin="round"/>
  </g>
  <g id="hover-center">
    <path d="M8 2.5 13.5 8 8 13.5 2.5 8Z" fill="#191522" fill-opacity="0.92"/>
    <path d="M4.5 6.2h5.4v5.3H4.5zM6.2 4.5h5.3v5.4" fill="none" stroke="#E8E1D2" stroke-width="1.15" stroke-linejoin="miter"/>
  </g>
  <g id="pressed-center">
    <path d="M8 2.5 13.5 8 8 13.5 2.5 8Z" fill="#241D36" fill-opacity="0.96"/>
    <path d="M4.5 6.2h5.4v5.3H4.5zM6.2 4.5h5.3v5.4" fill="none" stroke="#C4A45A" stroke-width="1.15" stroke-linejoin="miter"/>
  </g>
  <g id="inactive-center">
    <rect x="0" y="0" width="16" height="16" fill="#000000" opacity="0.01"/>
    <path d="M4 6h6v6H4zM6 4h6v6" fill="none" stroke="#A49AAD" stroke-opacity="0.62" stroke-width="1.2" stroke-linejoin="round"/>
  </g>
  <g id="deactivated-center">
    <rect x="0" y="0" width="16" height="16" fill="#000000" opacity="0.01"/>
    <path d="M4 6h6v6H4zM6 4h6v6" fill="none" stroke="#A49AAD" stroke-opacity="0.35" stroke-width="1.2" stroke-linejoin="round"/>
  </g>
</svg>
