<svg xmlns="http://www.w3.org/2000/svg" width="96" height="72" viewBox="0 0 96 72">
  <style id="current-color-scheme" type="text/css">
    .ColorScheme-Highlight { color:#6046A6; }
  </style>
  <rect id="normal-hint-left-margin" x="0" y="28" width="10" height="8" opacity="0.01"/>
  <rect id="normal-hint-right-margin" x="86" y="28" width="10" height="8" opacity="0.01"/>
  <rect id="normal-hint-top-margin" x="44" y="0" width="8" height="10" opacity="0.01"/>
  <rect id="normal-hint-bottom-margin" x="44" y="62" width="8" height="10" opacity="0.01"/>
  <rect id="normal-center" x="14" y="12" width="68" height="24" fill="#0D0B12" fill-opacity="0.01"/>
  <rect id="normal-top" x="14" y="8" width="68" height="4" fill="#0D0B12" fill-opacity="0.01"/>
  <rect id="normal-bottom" x="14" y="36" width="68" height="4" fill="#0D0B12" fill-opacity="0.01"/>
  <rect id="normal-left" x="10" y="12" width="4" height="24" fill="#0D0B12" fill-opacity="0.01"/>
  <rect id="normal-right" x="82" y="12" width="4" height="24" fill="#0D0B12" fill-opacity="0.01"/>
  <path id="normal-topleft" d="M14 8h-1a3 3 0 0 0-3 3v1h4z" fill="#0D0B12" fill-opacity="0.01"/>
  <path id="normal-topright" d="M82 8h1a3 3 0 0 1 3 3v1h-4z" fill="#0D0B12" fill-opacity="0.01"/>
  <path id="normal-bottomleft" d="M10 36v1a3 3 0 0 0 3 3h1v-4z" fill="#0D0B12" fill-opacity="0.01"/>
  <path id="normal-bottomright" d="M82 36v4h1a3 3 0 0 0 3-3v-1z" fill="#0D0B12" fill-opacity="0.01"/>
  <rect id="hover-center" x="14" y="12" width="68" height="24" fill="#21172E" fill-opacity="0.42"/>
  <rect id="hover-top" x="14" y="8" width="68" height="4" fill="#21172E" fill-opacity="0.42"/>
  <rect id="hover-bottom" x="14" y="36" width="68" height="4" fill="#21172E" fill-opacity="0.42"/>
  <rect id="hover-left" x="10" y="12" width="4" height="24" fill="#21172E" fill-opacity="0.42"/>
  <rect id="hover-right" x="82" y="12" width="4" height="24" fill="#21172E" fill-opacity="0.42"/>
  <path id="hover-topleft" d="M14 8h-1a3 3 0 0 0-3 3v1h4z" fill="#21172E" fill-opacity="0.42"/>
  <path id="hover-topright" d="M82 8h1a3 3 0 0 1 3 3v1h-4z" fill="#21172E" fill-opacity="0.42"/>
  <path id="hover-bottomleft" d="M10 36v1a3 3 0 0 0 3 3h1v-4z" fill="#21172E" fill-opacity="0.42"/>
  <path id="hover-bottomright" d="M82 36v4h1a3 3 0 0 0 3-3v-1z" fill="#21172E" fill-opacity="0.42"/>
  <rect id="selected-center" x="14" y="48" width="68" height="12" fill="#6046A6" fill-opacity="0.26"/>
  <rect id="selected-top" x="14" y="44" width="68" height="4" fill="#6046A6" fill-opacity="0.26"/>
  <rect id="selected-bottom" x="14" y="60" width="68" height="4" fill="#6046A6" fill-opacity="0.26"/>
  <rect id="selected-left" x="10" y="48" width="4" height="12" fill="#6046A6" fill-opacity="0.26"/>
  <rect id="selected-right" x="82" y="48" width="4" height="12" fill="#6046A6" fill-opacity="0.26"/>
  <path id="selected-topleft" d="M14 44h-1a3 3 0 0 0-3 3v1h4z" fill="#6046A6" fill-opacity="0.26"/>
  <path id="selected-topright" d="M82 44h1a3 3 0 0 1 3 3v1h-4z" fill="#6046A6" fill-opacity="0.26"/>
  <path id="selected-bottomleft" d="M10 60v1a3 3 0 0 0 3 3h1v-4z" fill="#6046A6" fill-opacity="0.26"/>
  <path id="selected-bottomright" d="M82 60v4h1a3 3 0 0 0 3-3v-1z" fill="#6046A6" fill-opacity="0.26"/>
  <use id="selected+hover-center" href="#selected-center"/>
  <use id="selected+hover-top" href="#selected-top"/>
  <use id="selected+hover-bottom" href="#selected-bottom"/>
  <use id="selected+hover-left" href="#selected-left"/>
  <use id="selected+hover-right" href="#selected-right"/>
  <use id="selected+hover-topleft" href="#selected-topleft"/>
  <use id="selected+hover-topright" href="#selected-topright"/>
  <use id="selected+hover-bottomleft" href="#selected-bottomleft"/>
  <use id="selected+hover-bottomright" href="#selected-bottomright"/>
</svg>
