<svg xmlns="http://www.w3.org/2000/svg" width="64" height="40" viewBox="0 0 64 40">
  <rect id="hint-stretch-borders" x="-8" y="-8" width="4" height="4" opacity="0.01"/>
  <rect id="hint-tile-center" x="-14" y="-8" width="4" height="4" opacity="0.01"/>
  <rect id="hint-top-margin" x="28" y="0" width="8" height="8" opacity="0.01"/>
  <rect id="hint-bottom-margin" x="28" y="32" width="8" height="8" opacity="0.01"/>
  <rect id="hint-left-margin" x="0" y="16" width="8" height="8" opacity="0.01"/>
  <rect id="hint-right-margin" x="56" y="16" width="8" height="8" opacity="0.01"/>
  <rect id="center" x="12" y="8" width="40" height="24" fill="#0D0B12" fill-opacity="0.50"/>
  <rect id="top" x="12" y="4" width="40" height="4" fill="#0D0B12" fill-opacity="0.50"/>
  <rect id="bottom" x="12" y="32" width="40" height="4" fill="#0D0B12" fill-opacity="0.50"/>
  <rect id="left" x="8" y="8" width="4" height="24" fill="#0D0B12" fill-opacity="0.50"/>
  <rect id="right" x="52" y="8" width="4" height="24" fill="#0D0B12" fill-opacity="0.50"/>
  <path id="topleft" d="M12 4h-1a3 3 0 0 0-3 3v1h4z" fill="#0D0B12" fill-opacity="0.50"/>
  <path id="topright" d="M52 4h1a3 3 0 0 1 3 3v1h-4z" fill="#0D0B12" fill-opacity="0.50"/>
  <path id="bottomleft" d="M8 32v1a3 3 0 0 0 3 3h1v-4z" fill="#0D0B12" fill-opacity="0.52"/>
  <path id="bottomright" d="M52 32v4h1a3 3 0 0 0 3-3v-1z" fill="#0D0B12" fill-opacity="0.52"/>
</svg>
