<svg xmlns="http://www.w3.org/2000/svg" width="48" height="48" version="1">
 <path fill="#E6D7A8" d="m40 42v-36c0-1.108-0.892-2-2-2h-28c-1.108 0-2 0.892-2 2v36c0 1.108 0.892 2 2 2h28c1.108 0 2-0.892 2-2z"/>
 <path fill="#F1E8D2" opacity=".2" d="m10 4c-1.108 0-2 0.892-2 2v1c0-1.108 0.892-2 2-2h28c1.108 0 2 0.892 2 2v-1c0-1.108-0.892-2-2-2z"/>
 <g fill="#191522" transform="matrix(.70711 -.70711 .70711 .70711 -9.9411 23.992)">
  <circle cx="24" cy="24" r="8"/>
  <rect width="4" height="11" x="22" y="30" rx="2" ry="2"/>
 </g>
 <path opacity=".2" d="m8 42v1c0 1.108 0.892 2 2 2h28c1.108 0 2-0.892 2-2v-1c0 1.108-0.892 2-2 2h-28c-1.108 0-2-0.892-2-2z"/>
 <path stroke-width="1.555" opacity=".2" d="m24 20c-2.782 0-5 2.2212-5 5 0 2.7787 2.218 5 5 5s5-2.2212 5-5-2.218-5-5-5z"/>
 <path fill="#7B63C4" stroke-width="1.555" d="m24 19c-2.782 0-5 2.2212-5 5 0 2.7787 2.218 5 5 5s5-2.2212 5-5-2.218-5-5-5z"/>
</svg>
