<svg xmlns="http://www.w3.org/2000/svg" width="48" height="48" version="1">
 <path fill="#A98745" d="m44 42v-36c0-1.108-0.892-2-2-2h-36c-1.108 0-2 0.892-2 2v36c0 1.108 0.892 2 2 2h36c1.108 0 2-0.892 2-2z"/>
 <path fill="#F1E8D2" opacity=".2" d="m6 4c-1.108 0-2 0.892-2 2v1c0-1.108 0.892-2 2-2h36c1.108 0 2 0.892 2 2v-1c0-1.108-0.892-2-2-2h-36z"/>
 <path opacity=".2" d="m4 42v1c0 1.108 0.892 2 2 2h36c1.108 0 2-0.892 2-2v-1c0 1.108-0.892 2-2 2h-36c-1.108 0-2-0.892-2-2z"/>
 <rect opacity=".2" width="18" height="4" x="15" y="39"/>
 <circle opacity=".2" cx="27" cy="32" r="3"/>
 <rect opacity=".2" width="6" height="6" x="21" y="10"/>
 <rect opacity=".2" width="6" height="6" x="28" y="10"/>
 <rect opacity=".2" width="6" height="6" x="35" y="10"/>
 <rect opacity=".2" width="6" height="6" x="7" y="17"/>
 <rect opacity=".2" width="6" height="6" x="21" y="17"/>
 <rect opacity=".2" width="6" height="6" x="28" y="17"/>
 <rect fill="#C4A45A" width="18" height="4" x="15" y="38"/>
 <circle fill="#C4A45A" cx="27" cy="31" r="3"/>
 <rect fill="#C4A45A" width="6" height="6" x="21" y="9"/>
 <rect fill="#C4A45A" width="6" height="6" x="28" y="9"/>
 <rect fill="#C4A45A" width="6" height="6" x="35" y="9"/>
 <rect fill="#C4A45A" width="6" height="6" x="7" y="16"/>
 <rect fill="#C4A45A" width="6" height="6" x="21" y="16"/>
 <rect fill="#C4A45A" width="6" height="6" x="28" y="16"/>
</svg>
