<svg xmlns="http://www.w3.org/2000/svg" width="48" height="48" version="1">
 <rect fill="#E6D7A8" width="40" height="40" x="-44" y="-44" rx="2" ry="2" transform="matrix(0,-1,-1,0,0,0)"/>
 <path fill="#F1E8D2" opacity=".2" d="m6 4c-1.108 0-2 0.892-2 2v1c0-1.108 0.892-2 2-2h36c1.108 0 2 0.892 2 2v-1c0-1.108-0.892-2-2-2h-36z"/>
 <path opacity=".2" d="m6 45c-1.108 0-2-0.892-2-2v-1c0 1.108 0.892 2 2 2h36c1.108 0 2-0.892 2-2v1c0 1.108-0.892 2-2 2h-36z"/>
 <circle fill="#6046A6" cx="24" cy="24" r="5"/>
 <circle fill="#6046A6" cx="12" cy="12" r="5"/>
 <circle fill="#6046A6" cx="36" cy="36" r="5"/>
 <circle fill="#6046A6" cx="12" cy="-36" r="5" transform="scale(1,-1)"/>
 <circle fill="#6046A6" cx="36" cy="-12" r="5" transform="scale(1,-1)"/>
</svg>
