<svg xmlns="http://www.w3.org/2000/svg" width="16" height="16" version="1">
 <rect fill="#E6D7A8" width="16" height="16" x="-16" y="-16" rx="8" ry="8" transform="matrix(0,-1,-1,0,0,0)"/>
 <g fill="#A98745">
  <path d="m7 10h2v2h-2m0-2"/>
  <path d="m4 7h2v2h-2m0-2"/>
  <path d="m4 10h2v2h-2m0-2"/>
 </g>
 <g fill="#7B63C4">
  <path d="m7 4h2v2h-2m0-2"/>
  <path d="m10 7h2v2h-2m0-2"/>
  <path d="m10 4h2v2h-2m0-2"/>
 </g>
 <g fill="#D33A52">
  <path d="m7 7h2v2h-2m0-2"/>
  <path d="m4 4h2v2h-2m0-2"/>
  <path d="m10 10h2v2h-2m0-2"/>
 </g>
</svg>
