<svg xmlns="http://www.w3.org/2000/svg" width="16" height="16" version="1">
 <rect fill="#2B2238" width="16" height="16" x="-16" y="-16" rx=".857" ry=".857" transform="matrix(0,-1,-1,0,0,0)"/>
 <g style="enable-background:new" transform="translate(-16,-268)">
  <rect fill="none" stroke="#A98745" stroke-linecap="round" width="13" height="13" x="17.5" y="269.5"/>
  <rect fill="none" stroke="#A98745" stroke-linecap="round" width="7" height="7" x="20.5" y="272.5"/>
  <path fill="none" stroke="#A98745" d="m16.5 268.5 4 4"/>
  <path fill="none" stroke="#A98745" d="m27.5 272.5 4-4"/>
  <path fill="none" stroke="#A98745" d="m27.5 279.5 4 4"/>
  <path fill="none" stroke="#A98745" d="m20.5 279.5-4 4"/>
  <circle fill="#E6D7A8" cx="17.5" cy="269.5" r="1.5"/>
  <circle fill="#E6D7A8" cx="30.5" cy="269.5" r="1.5"/>
  <circle fill="#E6D7A8" cx="20.5" cy="272.5" r="1.5"/>
  <circle fill="#E6D7A8" cx="27.5" cy="272.5" r="1.5"/>
  <circle fill="#E6D7A8" cx="27.5" cy="279.5" r="1.5"/>
  <circle fill="#E6D7A8" cx="20.5" cy="279.5" r="1.5"/>
  <circle fill="#E6D7A8" cx="17.5" cy="282.5" r="1.5"/>
  <circle fill="#E6D7A8" cx="30.5" cy="282.5" r="1.5"/>
 </g>
</svg>
