<svg xmlns="http://www.w3.org/2000/svg" width="16" height="16" version="1.1" viewBox="0 0 16 16">
 <path style="fill:#7B5A2C" d="m8 8h-8l4-4h4"/>
 <path style="fill:#D33A52" d="m8 8v-8l4 4v4"/>
 <path style="fill:#A98745" d="m4 8v4l4 4v-8"/>
 <path style="fill:#6046A6" d="m8 8h8l-4 4h-4"/>
 <path style="fill:#6046A6" d="m8 8 4-4v4z"/>
 <path style="fill:#A98745" d="m8 8-4 4v-4z"/>
 <path style="fill:#6046A6" d="m12 12-4-4v4z"/>
 <path style="fill:#7B5A2C" d="m4 4 4 4v-4z"/>
 <path style="fill:#F1E8D2" d="m8 6-0.75 1.25-1.25 0.75 1.25 0.75 0.75 1.25 0.75-1.25 1.25-0.75-1.25-0.75z"/>
 <path style="fill:#F1E8D2" d="m6 8 1.25 0.75 0.75 1.25-0-2z"/>
 <path style="fill:#E6D7A8" d="m10 8-1.25 0.75-0.75 1.25-0-2z"/>
</svg>
