<svg xmlns="http://www.w3.org/2000/svg" width="16" height="16" version="1">
 <rect fill="#2B2238" width="3" height="3" x="0" y="0" rx=".153" ry=".179"/>
 <rect fill="#E6D7A8" width="3" height="3" x="4" y="0" rx=".153" ry=".179"/>
 <rect fill="#D33A52" width="3" height="3" x="8" y="0" rx=".153" ry=".179"/>
 <rect fill="#E6D7A8" width="3" height="3" x="12" y="0" rx=".153" ry=".179"/>
 <rect fill="#E6D7A8" width="3" height="3" x="0" y="4" rx=".153" ry=".179"/>
 <rect fill="#E6D7A8" width="3" height="3" x="4" y="4" rx=".153" ry=".179"/>
 <rect fill="#D33A52" width="3" height="3" x="8" y="4" rx=".153" ry=".179"/>
 <rect fill="#E6D7A8" width="3" height="3" x="12" y="4" rx=".153" ry=".179"/>
 <rect fill="#E6D7A8" width="3" height="3" x="0" y="8" rx=".153" ry=".179"/>
 <rect fill="#2B2238" width="3" height="3" x="4" y="8" rx=".153" ry=".179"/>
 <rect fill="#E6D7A8" width="3" height="3" x="8" y="8" rx=".153" ry=".179"/>
 <rect fill="#A98745" width="3" height="3" x="12" y="8" rx=".153" ry=".179"/>
 <rect fill="#E6D7A8" width="3" height="3" x="0" y="12" rx=".153" ry=".179"/>
 <rect fill="#E6D7A8" width="3" height="3" x="4" y="12" rx=".153" ry=".179"/>
 <rect fill="#E6D7A8" width="3" height="3" x="8" y="12" rx=".153" ry=".179"/>
 <rect fill="#E6D7A8" width="3" height="3" x="12" y="12" rx=".153" ry=".179"/>
</svg>
