<svg xmlns="http://www.w3.org/2000/svg" width="16" height="16" version="1">
 <rect fill="#7B5A2C" width="1" height="1" x="4" y="-14" ry="0" transform="scale(1,-1)"/>
 <rect fill="#7B5A2C" width="1" height="1" x="1" y="-14" ry="0" transform="scale(1,-1)"/>
 <rect fill="#7B5A2C" width="1" height="1" x="2" y="-14" ry="0" transform="scale(1,-1)"/>
 <rect fill="#7B5A2C" width="1" height="1" x="-13" y="4" ry="0" transform="scale(-1,1)"/>
 <rect fill="#191522" width="1" height="1" x="3" y="4" ry="0"/>
 <rect fill="#7B5A2C" width="1" height="1" x="-8" y="4" ry="0" transform="scale(-1,1)"/>
 <rect fill="#7B5A2C" width="1" height="1" x="-7" y="4" ry="0" transform="scale(-1,1)"/>
 <rect fill="#7B5A2C" width="1" height="1" x="-6" y="4" ry="0" transform="scale(-1,1)"/>
 <rect fill="#191522" width="1" height="1" x="-1" y="4" ry="0" transform="scale(-1,1)"/>
 <rect fill="#7B5A2C" width="1" height="1" x="-8" y="3" ry="0" transform="scale(-1,1)"/>
 <rect fill="#191522" width="1" height="1" x="1" y="3" ry="0"/>
 <rect fill="#C4A45A" width="1" height="1" x="-11" y="3" ry="0" transform="scale(-1,1)"/>
 <rect fill="#7B5A2C" width="1" height="1" x="6" y="3" ry="0"/>
 <rect fill="#2B2238" width="1" height="1" x="-1" y="3" ry="0" transform="scale(-1,1)"/>
 <rect fill="#7B5A2C" width="1" height="1" x="0" y="2" ry="0"/>
 <rect fill="#191522" width="1" height="1" x="-7" y="2" ry="0" transform="scale(-1,1)"/>
 <rect fill="#C4A45A" width="1" height="1" x="7" y="2" ry="0"/>
 <rect fill="#A98745" width="1" height="1" x="-12" y="2" ry="0" transform="scale(-1,1)"/>
 <rect fill="#A98745" width="1" height="1" x="2" y="2" ry="0"/>
 <rect fill="#A98745" width="1" height="1" x="11" y="3" ry="0"/>
 <rect fill="#A98745" width="1" height="1" x="1" y="2" ry="0"/>
 <rect fill="#A98745" width="1" height="1" x="2" y="0" ry="0"/>
 <rect fill="#A98745" width="1" height="1" x="-4" y="0" ry="0" transform="scale(-1,1)"/>
 <rect fill="#A98745" width="1" height="1" x="-2" y="0" ry="0" transform="scale(-1,1)"/>
 <path fill="#A98745" d="m1 0s-1 0-1 1h1z"/>
 <rect fill="#7B5A2C" width="1" height="1" x="-9" y="5" ry="0" transform="scale(-1,1)"/>
 <rect fill="#7B5A2C" width="1" height="1" x="4" y="5" ry="0"/>
 <rect fill="#7B5A2C" width="1" height="1" x="1" y="5" ry="0"/>
 <rect fill="#7B5A2C" width="1" height="1" x="2" y="5" ry="0"/>
 <rect fill="#7B5A2C" width="1" height="1" x="-9" y="4" ry="0" transform="scale(-1,1)"/>
 <rect fill="#7B5A2C" width="1" height="1" x="4" y="4" ry="0"/>
 <rect fill="#7B5A2C" width="1" height="1" x="1" y="4" ry="0"/>
 <rect fill="#191522" width="1" height="1" x="2" y="4" ry="0"/>
 <rect fill="#191522" width="1" height="1" x="4" y="3" ry="0"/>
 <rect fill="#7B5A2C" width="1" height="1" x="-6" y="3" ry="0" transform="scale(-1,1)"/>
 <rect fill="#2B2238" width="1" height="1" x="-9" y="3" ry="0" transform="scale(-1,1)"/>
 <rect fill="#7B5A2C" width="1" height="1" x="8" y="2" ry="0"/>
 <rect fill="#A98745" width="1" height="1" x="-11" y="2" ry="0" transform="scale(-1,1)"/>
 <rect fill="#A98745" width="1" height="1" x="5" y="2" ry="0"/>
 <rect fill="#A98745" width="1" height="1" x="-3" y="3" ry="0" transform="scale(-1,1)"/>
 <rect fill="#A98745" width="1" height="1" x="4" y="2" ry="0"/>
 <path fill="#A98745" d="m5 0h-1v1h1z"/>
 <rect fill="#A98745" width="1" height="1" x="10" y="0" ry="0"/>
 <rect fill="#7B5A2C" width="1" height="1" x="0" y="13" ry="0"/>
 <rect fill="#191522" width="1" height="1" x="5" y="13" ry="0"/>
 <rect fill="#7B5A2C" width="1" height="1" x="6" y="13" ry="0"/>
 <rect fill="#7B5A2C" width="1" height="1" x="-4" y="13" ry="0" transform="scale(-1,1)"/>
 <rect fill="#191522" width="1" height="1" x="12" y="13" ry="0"/>
 <rect fill="#7B5A2C" width="1" height="1" x="-13" y="6" ry="0" transform="scale(-1,1)"/>
 <rect fill="#191522" width="1" height="1" x="3" y="6" ry="0"/>
 <rect fill="#7B5A2C" width="1" height="1" x="-6" y="6" ry="0" transform="scale(-1,1)"/>
 <rect fill="#191522" width="1" height="1" x="-1" y="6" ry="0" transform="scale(-1,1)"/>
 <rect fill="#7B5A2C" width="1" height="1" x="0" y="-6" ry="0" transform="scale(1,-1)"/>
 <rect fill="#191522" width="1" height="1" x="5" y="-6" ry="0" transform="scale(1,-1)"/>
 <rect fill="#7B5A2C" width="1" height="1" x="6" y="-6" ry="0" transform="scale(1,-1)"/>
 <rect fill="#7B5A2C" width="1" height="1" x="7" y="-6" ry="0" transform="scale(1,-1)"/>
 <rect fill="#7B5A2C" width="1" height="1" x="-4" y="-6" ry="0" transform="scale(-1)"/>
 <rect fill="#191522" width="1" height="1" x="12" y="-6" ry="0" transform="scale(1,-1)"/>
 <rect fill="#191522" width="1" height="1" x="6" y="6" ry="0"/>
 <rect fill="#7B5A2C" width="1" height="1" x="-3" y="6" ry="0" transform="scale(-1,1)"/>
 <rect fill="#2B2238" width="1" height="1" x="4" y="6" ry="0"/>
 <rect fill="#7B5A2C" width="1" height="1" x="1" y="6" ry="0"/>
 <path fill="#7B5A2C" d="m0 15h1v1s-1 0-1-1z"/>
 <rect fill="#191522" width="1" height="1" x="5" y="15" ry="0"/>
 <rect fill="#2B2238" width="1" height="1" x="6" y="15" ry="0"/>
 <rect fill="#7B5A2C" width="1" height="1" x="-13" y="15" ry="0" transform="scale(-1,1)"/>
 <rect fill="#7B5A2C" width="1" height="1" x="-4" y="15" ry="0" transform="scale(-1,1)"/>
 <rect fill="#7B5A2C" width="1" height="1" x="-3" y="14" ry="0" transform="scale(-1,1)"/>
 <rect fill="#191522" width="1" height="1" x="-2" y="14" ry="0" transform="scale(-1,1)"/>
 <rect fill="#7B5A2C" width="1" height="1" x="-5" y="14" ry="0" transform="scale(-1,1)"/>
 <rect fill="#7B5A2C" width="1" height="1" x="4" y="15" ry="0"/>
 <rect fill="#7B5A2C" width="1" height="1" x="1" y="15" ry="0"/>
 <rect fill="#191522" width="1" height="1" x="2" y="15" ry="0"/>
 <rect fill="#7B5A2C" width="1" height="1" x="0" y="14" ry="0"/>
 <rect fill="#191522" width="1" height="1" x="5" y="14" ry="0"/>
 <rect fill="#7B5A2C" width="1" height="1" x="6" y="14" ry="0"/>
 <rect fill="#7B5A2C" width="1" height="1" x="-4" y="14" ry="0" transform="scale(-1,1)"/>
 <rect fill="#191522" width="1" height="1" x="12" y="14" ry="0"/>
 <rect fill="#7B5A2C" width="1" height="1" x="-14" y="-14" ry="0" transform="scale(-1)"/>
 <rect fill="#7B5A2C" width="1" height="1" x="-12" y="-14" ry="0" transform="scale(-1)"/>
 <rect fill="#7B5A2C" width="1" height="1" x="-11" y="-14" ry="0" transform="scale(-1)"/>
 <rect fill="#7B5A2C" width="1" height="1" x="7" y="-14" ry="0" transform="scale(1,-1)"/>
 <rect fill="#191522" width="1" height="1" x="14" y="4" ry="0"/>
 <rect fill="#7B5A2C" width="1" height="1" x="15" y="4" ry="0"/>
 <rect fill="#7B5A2C" width="1" height="1" x="-15" y="3" ry="0" transform="scale(-1,1)"/>
 <rect fill="#191522" width="1" height="1" x="14" y="2" ry="0"/>
 <rect fill="#A98745" width="1" height="1" x="-16" y="2" ry="0" transform="scale(-1,1)"/>
 <rect fill="#A98745" width="1" height="1" x="-16" y="3" ry="0" transform="scale(-1,1)"/>
 <rect fill="#A98745" width="1" height="1" x="-6" y="0" ry="0" transform="scale(-1,1)"/>
 <rect fill="#A98745" width="1" height="1" x="-14" y="0" ry="0" transform="scale(-1,1)"/>
 <rect fill="#A98745" width="1" height="1" x="-15" y="0" ry="0" transform="scale(-1,1)"/>
 <rect fill="#A98745" width="1" height="1" x="-9" y="0" ry="0" transform="scale(-1,1)"/>
 <path fill="#A98745" d="m8 0h-1v1h1z"/>
 <rect fill="#7B5A2C" width="1" height="1" x="-14" y="5" ry="0" transform="scale(-1,1)"/>
 <rect fill="#7B5A2C" width="1" height="1" x="-12" y="5" ry="0" transform="scale(-1,1)"/>
 <rect fill="#7B5A2C" width="1" height="1" x="-11" y="5" ry="0" transform="scale(-1,1)"/>
 <rect fill="#7B5A2C" width="1" height="1" x="-14" y="4" ry="0" transform="scale(-1,1)"/>
 <rect fill="#7B5A2C" width="1" height="1" x="-12" y="4" ry="0" transform="scale(-1,1)"/>
 <rect fill="#7B5A2C" width="1" height="1" x="-11" y="4" ry="0" transform="scale(-1,1)"/>
 <rect fill="#191522" width="1" height="1" x="-4" y="3" ry="0" transform="scale(-1,1)"/>
 <rect fill="#7B5A2C" width="1" height="1" x="-13" y="3" ry="0" transform="scale(-1,1)"/>
 <rect fill="#A98745" width="1" height="1" x="13" y="2" ry="0"/>
 <rect fill="#A98745" width="1" height="1" x="12" y="2" ry="0"/>
 <rect fill="#A98745" width="1" height="1" x="13" y="3" ry="0"/>
 <rect fill="#A98745" width="1" height="1" x="-4" y="2" ry="0" transform="scale(-1,1)"/>
 <rect fill="#A98745" width="1" height="1" x="6" y="0" ry="0"/>
 <path fill="#A98745" d="m16 1c0-1-1-1-1-1v1h1z"/>
 <rect fill="#A98745" width="1" height="1" x="12" y="0" ry="0"/>
 <rect fill="#A98745" width="1" height="1" x="-12" y="0" ry="0" transform="scale(-1,1)"/>
 <rect fill="#2B2238" width="1" height="1" x="-16" y="13" ry="0" transform="scale(-1,1)"/>
 <rect fill="#7B5A2C" width="1" height="1" x="-15" y="13" ry="0" transform="scale(-1,1)"/>
 <rect fill="#191522" width="1" height="1" x="-9" y="13" ry="0" transform="scale(-1,1)"/>
 <rect fill="#7B5A2C" width="1" height="1" x="8" y="6" ry="0"/>
 <rect fill="#191522" width="1" height="1" x="14" y="6" ry="0"/>
 <rect fill="#7B5A2C" width="1" height="1" x="15" y="6" ry="0"/>
 <rect fill="#7B5A2C" width="1" height="1" x="-16" y="-6" ry="0" transform="scale(-1)"/>
 <rect fill="#7B5A2C" width="1" height="1" x="-15" y="-6" ry="0" transform="scale(-1)"/>
 <rect fill="#7B5A2C" width="1" height="1" x="-8" y="6" ry="0" transform="scale(-1,1)"/>
 <rect fill="#2B2238" width="1" height="1" x="-12" y="6" ry="0" transform="scale(-1,1)"/>
 <rect fill="#7B5A2C" width="1" height="1" x="-11" y="6" ry="0" transform="scale(-1,1)"/>
 <rect fill="#191522" width="1" height="1" x="13" y="6" ry="0"/>
 <rect fill="#7B5A2C" width="1" height="1" x="8" y="15" ry="0"/>
 <rect fill="#7B5A2C" width="1" height="1" x="-15" y="15" ry="0" transform="scale(-1,1)"/>
 <rect fill="#191522" width="1" height="1" x="-14" y="15" ry="0" transform="scale(-1,1)"/>
 <rect fill="#7B5A2C" width="1" height="1" x="-8" y="14" ry="0" transform="scale(-1,1)"/>
 <rect fill="#191522" width="1" height="1" x="10" y="14" ry="0"/>
 <rect fill="#7B5A2C" width="1" height="1" x="11" y="14" ry="0"/>
 <rect fill="#7B5A2C" width="1" height="1" x="13" y="14" ry="0"/>
 <path fill="#7B5A2C" d="m16 15h-1v1s1 0 1-1z"/>
 <rect fill="#7B5A2C" width="1" height="1" x="-12" y="15" ry="0" transform="scale(-1,1)"/>
 <rect fill="#7B5A2C" width="1" height="1" x="-11" y="15" ry="0" transform="scale(-1,1)"/>
 <rect fill="#191522" width="1" height="1" x="7" y="15" ry="0"/>
 <rect fill="#7B5A2C" width="1" height="1" x="-16" y="14" ry="0" transform="scale(-1,1)"/>
 <rect fill="#7B5A2C" width="1" height="1" x="-15" y="14" ry="0" transform="scale(-1,1)"/>
 <rect fill="#191522" width="1" height="1" x="-9" y="14" ry="0" transform="scale(-1,1)"/>
 <rect fill="#7B5A2C" width="1" height="1" x="-9" y="11" ry="0" transform="scale(-1,1)"/>
 <rect fill="#7B5A2C" width="1" height="1" x="4" y="11" ry="0"/>
 <rect fill="#7B5A2C" width="1" height="1" x="1" y="11" ry="0"/>
 <rect fill="#7B5A2C" width="1" height="1" x="2" y="11" ry="0"/>
 <rect fill="#191522" width="1" height="1" x="3" y="12" ry="0"/>
 <rect fill="#7B5A2C" width="1" height="1" x="-6" y="12" ry="0" transform="scale(-1,1)"/>
 <rect fill="#191522" width="1" height="1" x="-1" y="12" ry="0" transform="scale(-1,1)"/>
 <rect fill="#7B5A2C" width="1" height="1" x="0" y="-12" ry="0" transform="scale(1,-1)"/>
 <rect fill="#191522" width="1" height="1" x="5" y="-12" ry="0" transform="scale(1,-1)"/>
 <rect fill="#7B5A2C" width="1" height="1" x="6" y="-12" ry="0" transform="scale(1,-1)"/>
 <rect fill="#7B5A2C" width="1" height="1" x="7" y="-12" ry="0" transform="scale(1,-1)"/>
 <rect fill="#7B5A2C" width="1" height="1" x="-4" y="-12" ry="0" transform="scale(-1)"/>
 <rect fill="#191522" width="1" height="1" x="6" y="12" ry="0"/>
 <rect fill="#7B5A2C" width="1" height="1" x="-3" y="12" ry="0" transform="scale(-1,1)"/>
 <rect fill="#2B2238" width="1" height="1" x="4" y="12" ry="0"/>
 <rect fill="#7B5A2C" width="1" height="1" x="1" y="12" ry="0"/>
 <rect fill="#7B5A2C" width="1" height="1" x="8" y="12" ry="0"/>
 <rect fill="#7B5A2C" width="1" height="1" x="-8" y="12" ry="0" transform="scale(-1,1)"/>
 <rect fill="#7B5A2C" width="1" height="1" x="14" y="10" ry="0"/>
 <rect fill="#191522" width="1" height="1" x="-9" y="10" ry="0" transform="scale(-1,1)"/>
 <rect fill="#191522" width="1" height="1" x="10" y="10" ry="0"/>
 <rect fill="#191522" width="1" height="1" x="-14" y="10" ry="0" transform="scale(-1,1)"/>
 <rect fill="#7B5A2C" width="1" height="1" x="12" y="10" ry="0"/>
 <rect fill="#191522" width="1" height="1" x="-16" y="10" ry="0" transform="scale(-1,1)"/>
 <rect fill="#7B5A2C" width="1" height="1" x="-12" y="10" ry="0" transform="scale(-1,1)"/>
 <rect fill="#7B5A2C" width="1" height="1" x="-9" y="9" ry="0" transform="scale(-1,1)"/>
 <rect fill="#7B5A2C" width="1" height="1" x="4" y="9" ry="0"/>
 <rect fill="#7B5A2C" width="1" height="1" x="1" y="9" ry="0"/>
 <rect fill="#7B5A2C" width="1" height="1" x="2" y="9" ry="0"/>
 <rect fill="#7B5A2C" width="1" height="1" x="0" y="-10" ry="0" transform="scale(1,-1)"/>
 <rect fill="#191522" width="1" height="1" x="5" y="-10" ry="0" transform="scale(1,-1)"/>
 <rect fill="#7B5A2C" width="1" height="1" x="6" y="-10" ry="0" transform="scale(1,-1)"/>
 <rect fill="#7B5A2C" width="1" height="1" x="7" y="-10" ry="0" transform="scale(1,-1)"/>
 <rect fill="#7B5A2C" width="1" height="1" x="-4" y="-10" ry="0" transform="scale(-1)"/>
 <rect fill="#191522" width="1" height="1" x="12" y="-10" ry="0" transform="scale(1,-1)"/>
 <rect fill="#7B5A2C" width="1" height="1" x="-14" y="9" ry="0" transform="scale(-1,1)"/>
 <rect fill="#7B5A2C" width="1" height="1" x="-12" y="9" ry="0" transform="scale(-1,1)"/>
 <rect fill="#7B5A2C" width="1" height="1" x="-11" y="9" ry="0" transform="scale(-1,1)"/>
 <rect fill="#7B5A2C" width="1" height="1" x="-16" y="-10" ry="0" transform="scale(-1)"/>
 <rect fill="#7B5A2C" width="1" height="1" x="-15" y="-10" ry="0" transform="scale(-1)"/>
 <rect fill="#7B5A2C" width="1" height="1" x="-12" y="7" ry="0" transform="scale(-1,1)"/>
 <rect fill="#7B5A2C" width="1" height="1" x="-15" y="7" ry="0" transform="scale(-1,1)"/>
 <rect fill="#7B5A2C" width="1" height="1" x="-14" y="7" ry="0" transform="scale(-1,1)"/>
 <rect fill="#7B5A2C" width="1" height="1" x="3" y="8" ry="0"/>
 <rect fill="#191522" width="1" height="1" x="-13" y="8" ry="0" transform="scale(-1,1)"/>
 <rect fill="#7B5A2C" width="1" height="1" x="10" y="8" ry="0"/>
 <rect fill="#191522" width="1" height="1" x="15" y="8" ry="0"/>
 <rect fill="#7B5A2C" width="1" height="1" x="-16" y="-8" ry="0" transform="scale(-1)"/>
 <rect fill="#191522" width="1" height="1" x="-11" y="-8" ry="0" transform="scale(-1)"/>
 <rect fill="#7B5A2C" width="1" height="1" x="12" y="-8" ry="0" transform="scale(1,-1)"/>
 <rect fill="#191522" width="1" height="1" x="-4" y="-8" ry="0" transform="scale(-1)"/>
 <rect fill="#7B5A2C" width="1" height="1" x="13" y="8" ry="0"/>
 <rect fill="#2B2238" width="1" height="1" x="-12" y="8" ry="0" transform="scale(-1,1)"/>
 <rect fill="#7B5A2C" width="1" height="1" x="-15" y="8" ry="0" transform="scale(-1,1)"/>
 <rect fill="#7B5A2C" width="1" height="1" x="2" y="7" ry="0"/>
 <rect fill="#7B5A2C" width="1" height="1" x="4" y="7" ry="0"/>
 <rect fill="#7B5A2C" width="1" height="1" x="5" y="7" ry="0"/>
 <rect fill="#191522" width="1" height="1" x="-2" y="8" ry="0" transform="scale(-1,1)"/>
 <rect fill="#7B5A2C" width="1" height="1" x="-1" y="8" ry="0" transform="scale(-1,1)"/>
 <rect fill="#7B5A2C" width="1" height="1" x="7" y="8" ry="0"/>
 <rect fill="#191522" width="1" height="1" x="8" y="8" ry="0"/>
 <rect fill="#7B5A2C" width="1" height="1" x="-9" y="-8" ry="0" transform="scale(-1)"/>
 <rect fill="#191522" width="1" height="1" x="-8" y="-8" ry="0" transform="scale(-1)"/>
 <rect fill="#7B5A2C" width="1" height="1" x="-7" y="-8" ry="0" transform="scale(-1)"/>
 <rect fill="#7B5A2C" width="1" height="1" x="0" y="-8" ry="0" transform="scale(1,-1)"/>
 <rect fill="#7B5A2C" width="1" height="1" x="1" y="-8" ry="0" transform="scale(1,-1)"/>
 <rect fill="#191522" width="1" height="1" x="-7" y="8" ry="0" transform="scale(-1,1)"/>
 <rect fill="#2B2238" width="1" height="1" x="4" y="8" ry="0"/>
 <rect fill="#7B5A2C" width="1" height="1" x="5" y="8" ry="0"/>
 <rect fill="#191522" width="1" height="1" x="-3" y="8" ry="0" transform="scale(-1,1)"/>
 <rect fill="#191522" width="1" height="1" x="0" y="10" ry="0"/>
 <rect fill="#2B2238" width="1" height="1" x="1" y="10" ry="0"/>
 <rect fill="#191522" width="1" height="1" x="5" y="10" ry="0"/>
 <rect fill="#191522" width="1" height="1" x="7" y="10" ry="0"/>
 <rect fill="#7B5A2C" width="1" height="1" x="3" y="10" ry="0"/>
 <rect fill="#191522" width="1" height="1" x="2" y="10" ry="0"/>
 <rect fill="#191522" width="1" height="1" x="-5" y="10" ry="0" transform="scale(-1,1)"/>
 <rect fill="#7B5A2C" width="1" height="1" x="-7" y="10" ry="0" transform="scale(-1,1)"/>
 <rect fill="#A98745" width="1" height="1" x="-16" y="1" ry="0" transform="scale(-1,1)"/>
 <rect fill="#A98745" width="1" height="1" x="-15" y="1" ry="0" transform="scale(-1,1)"/>
 <rect fill="#A98745" width="1" height="1" x="-14" y="1" ry="0" transform="scale(-1,1)"/>
 <rect fill="#A98745" width="1" height="1" x="-13" y="1" ry="0" transform="scale(-1,1)"/>
 <rect fill="#A98745" width="1" height="1" x="7" y="1" ry="0"/>
 <rect fill="#A98745" width="1" height="1" x="8" y="1" ry="0"/>
 <rect fill="#A98745" width="1" height="1" x="11" y="1" ry="0"/>
 <rect fill="#A98745" width="1" height="1" x="-7" y="1" ry="0" transform="scale(-1,1)"/>
 <rect fill="#A98745" width="1" height="1" x="-6" y="1" ry="0" transform="scale(-1,1)"/>
 <rect fill="#A98745" width="1" height="1" x="0" y="1" ry="0"/>
 <rect fill="#A98745" width="1" height="1" x="1" y="1" ry="0"/>
 <rect fill="#A98745" width="1" height="1" x="-11" y="1" ry="0" transform="scale(-1,1)"/>
 <rect fill="#A98745" width="1" height="1" x="2" y="1" ry="0"/>
 <rect fill="#A98745" width="1" height="1" x="3" y="1" ry="0"/>
 <rect fill="#A98745" width="1" height="1" x="4" y="1" ry="0"/>
 <rect fill="#7B5A2C" width="1" height="1" x="-14" y="11" ry="0" transform="scale(-1,1)"/>
 <rect fill="#7B5A2C" width="1" height="1" x="15" y="12" ry="0"/>
 <rect fill="#7B5A2C" width="1" height="1" x="-11" y="12" ry="0" transform="scale(-1,1)"/>
 <rect fill="#191522" width="1" height="1" x="10" y="-12" ry="0" transform="scale(1,-1)"/>
 <rect fill="#7B5A2C" width="1" height="1" x="11" y="-12" ry="0" transform="scale(1,-1)"/>
 <rect fill="#7B5A2C" width="1" height="1" x="12" y="-12" ry="0" transform="scale(1,-1)"/>
 <rect fill="#191522" width="1" height="1" x="11" y="12" ry="0"/>
 <rect fill="#191522" width="1" height="1" x="-15" y="12" ry="0" transform="scale(-1,1)"/>
 <rect fill="#7B5A2C" width="1" height="1" x="-16" y="11" ry="0" transform="scale(-1,1)"/>
 <rect fill="#7B5A2C" width="1" height="1" x="13" y="12" ry="0"/>
 <rect fill="#191522" width="1" height="1" x="14" y="-12" ry="0" transform="scale(1,-1)"/>
 <rect fill="#7B5A2C" width="1" height="1" x="-13" y="12" ry="0" transform="scale(-1,1)"/>
 <rect fill="#7B5A2C" width="1" height="1" x="-10" y="4" ry="0" transform="scale(-1,1)"/>
 <rect fill="#7B5A2C" width="1" height="1" x="-10" y="3" ry="0" transform="scale(-1,1)"/>
 <rect fill="#A98745" width="1" height="1" x="9" y="2" ry="0"/>
 <rect fill="#191522" width="1" height="1" x="9" y="13" ry="0"/>
 <rect fill="#7B5A2C" width="1" height="1" x="-10" y="6" ry="0" transform="scale(-1,1)"/>
 <rect fill="#191522" width="1" height="1" x="9" y="-6" ry="0" transform="scale(1,-1)"/>
 <rect fill="#191522" width="1" height="1" x="9" y="15" ry="0"/>
 <rect fill="#191522" width="1" height="1" x="9" y="14" ry="0"/>
 <rect fill="#A98745" width="1" height="1" x="-10" y="0" ry="0" transform="scale(-1,1)"/>
 <rect fill="#7B5A2C" width="1" height="1" x="-10" y="12" ry="0" transform="scale(-1,1)"/>
 <rect fill="#191522" width="1" height="1" x="9" y="-12" ry="0" transform="scale(1,-1)"/>
 <rect fill="#191522" width="1" height="1" x="9" y="-10" ry="0" transform="scale(1,-1)"/>
 <rect fill="#7B5A2C" width="1" height="1" x="9" y="7" ry="0"/>
 <rect fill="#7B5A2C" width="1" height="1" x="9" y="8" ry="0"/>
 <rect fill="#191522" width="1" height="1" x="9" y="10" ry="0"/>
 <rect fill="#A98745" width="1" height="1" x="-10" y="1" ry="0" transform="scale(-1,1)"/>
</svg>
