<svg xmlns="http://www.w3.org/2000/svg" width="16" height="16" version="1">
 <rect fill="#6046A6" width="16" height="16" x="-16" y="-16" rx=".857" ry=".857" transform="matrix(0,-1,-1,0,0,0)"/>
 <path fill="#F1E8D2" d="m6 4a2 2 0 0 1 -2 2 2 2 0 0 1 -2 -2 2 2 0 0 1 2 -2 2 2 0 0 1 2 2z"/>
 <path fill="#6046A6" d="m14 4a2 2 0 0 0 -2 -2 2 2 0 0 0 -2 2 2 2 0 0 0 2 2 2 2 0 0 0 2 -2z"/>
 <path fill="#F1E8D2" d="m10 12a2 2 0 0 0 2 2 2 2 0 0 0 2 -2 2 2 0 0 0 -2 -2 2 2 0 0 0 -2 2z"/>
 <path fill="#6046A6" d="m2 12a2 2 0 0 1 2 -2 2 2 0 0 1 2 2 2 2 0 0 1 -2 2 2 2 0 0 1 -2 -2z"/>
</svg>
