<svg xmlns="http://www.w3.org/2000/svg" width="16" height="16" version="1">
 <path fill="#8D4FB3" d="m2.3421 2.3494c1.5649-1.565 3.612-2.3481 5.6543-2.3494v8.0036z"/>
 <path fill="#D33A52" d="m13.651 2.3494c-1.565-1.565-3.612-2.3481-5.6546-2.3494v8.0036z"/>
 <path fill="#7B63C4" d="m2.3494 2.3485c-1.565 1.5649-2.3481 3.612-2.3494 5.6543h8.0036z"/>
 <path fill="#7B63C4" d="m2.3494 13.657c-1.565-1.565-2.3481-3.612-2.3494-5.6542h8.0036z"/>
 <path fill="#7B5A2C" d="m13.651 2.3485c1.565 1.5649 2.348 3.612 2.349 5.6543h-8.0036z"/>
 <path fill="#A98745" d="m13.651 13.657c1.565-1.565 2.348-3.612 2.349-5.6542h-8.0036z"/>
 <path fill="#7B63C4" d="m2.3421 13.651c1.5649 1.565 3.612 2.348 5.6543 2.349v-8.0036z"/>
 <path fill="#C4A45A" d="m13.651 13.651c-1.565 1.565-3.612 2.348-5.6546 2.349v-8.0036z"/>
 <circle fill="#F1E8D2" cx="8" cy="8" r="4"/>
</svg>
