<svg xmlns="http://www.w3.org/2000/svg" width="16" height="16" version="1">
 <rect style="fill:#6046A6" width="16" height="16" x="-16" y="-16" rx=".8" ry=".8" transform="matrix(0,-1,-1,0,0,0)"/>
 <rect style="fill:#A98745" width="2" height="2" x="2" y="8"/>
 <rect style="fill:#D33A52" width="2" height="2" x="4" y="8"/>
 <rect style="fill:#7B63C4" width="2" height="2" x="6" y="8"/>
 <rect style="fill:#A98745" width="2" height="2" x="8" y="8"/>
 <rect style="fill:#7B5A2C" width="2" height="2" x="10" y="8"/>
 <rect style="fill:#F1E8D2" width="2" height="2" x="12" y="8"/>
 <rect style="fill:#7B63C4" width="2" height="2" x="2" y="6"/>
 <rect style="fill:#F1E8D2" width="2" height="2" x="4" y="6"/>
 <rect style="fill:#A98745" width="2" height="2" x="6" y="6"/>
 <rect style="fill:#F1E8D2" width="2" height="2" x="8" y="6"/>
 <rect style="fill:#A98745" width="2" height="2" x="10" y="6"/>
 <rect style="fill:#7B63C4" width="2" height="2" x="12" y="6"/>
 <rect style="fill:#F1E8D2" width="2" height="2" x="2" y="4"/>
 <rect style="fill:#A98745" width="2" height="2" x="4" y="4"/>
 <rect style="fill:#7B5A2C" width="2" height="2" x="6" y="4"/>
 <rect style="fill:#8D4FB3" width="2" height="2" x="8" y="4"/>
 <rect style="fill:#A98745" width="2" height="2" x="10" y="4"/>
 <rect style="fill:#7B5A2C" width="2" height="2" x="4" y="10"/>
 <rect style="fill:#8D4FB3" width="2" height="2" x="6" y="10"/>
 <rect style="fill:#D33A52" width="2" height="2" x="8" y="10"/>
 <rect style="fill:#A98745" width="2" height="2" x="10" y="10"/>
 <rect style="fill:#D33A52" width="2" height="2" x="12" y="10"/>
 <rect style="fill:#7B63C4" width="2" height="2" x="6" y="12"/>
 <rect style="fill:#F1E8D2" width="2" height="2" x="8" y="12"/>
 <rect style="fill:#A98745" width="2" height="2" x="10" y="12"/>
 <rect style="fill:#8D4FB3" width="2" height="2" x="12" y="12"/>
 <rect style="fill:#7B5A2C" width="2" height="2" x="2" y="2"/>
 <rect style="fill:#D33A52" width="2" height="2" x="4" y="2"/>
 <rect style="fill:#A98745" width="2" height="2" x="6" y="2"/>
 <rect style="fill:#7B63C4" width="2" height="2" x="8" y="2"/>
</svg>
