<svg xmlns="http://www.w3.org/2000/svg" width="22" height="22" version="1">
 <rect fill="#9E102B" width="20" height="20" x="-21" y="-21" rx="1" ry="1" transform="matrix(0,-1,-1,0,0,0)"/>
 <path opacity=".2" d="m5 2.5v12l6 6 6-6h-6l6-6h-6l6-6h-12z"/>
 <path fill="#F1E8D2" opacity=".2" d="m2 1c-0.554 0-1 0.446-1 1v0.5c0-0.554 0.446-1 1-1h18c0.554 0 1 0.446 1 1v-0.5c0-0.554-0.446-1-1-1h-18z"/>
 <path opacity=".2" d="m2 21.5c-0.554 0-1-0.446-1-1v-0.5c0 0.554 0.446 1 1 1h18c0.554 0 1-0.446 1-1v0.5c0 0.554-0.446 1-1 1h-18z"/>
 <path fill="#F1E8D2" d="m17 14h-6v6z"/>
 <path fill="#F1E8D2" d="m17 8h-6v6z"/>
 <path fill="#D33A52" d="m17 2h-6v6z"/>
 <path fill="#E6D7A8" d="m5 14h6v6z"/>
 <rect fill="#E6D7A8" width="6" height="12" x="5" y="2"/>
</svg>
