<svg xmlns="http://www.w3.org/2000/svg" width="22" height="22" version="1">
 <rect fill="#2B2238" width="20" height="20" x="-21" y="-21" rx="1" ry="1" transform="matrix(0,-1,-1,0,0,0)"/>
 <path fill="#F1E8D2" opacity=".1" d="m2 1c-0.554 0-1 0.446-1 1v0.5c0-0.554 0.446-1 1-1h18c0.554 0 1 0.446 1 1v-0.5c0-0.554-0.446-1-1-1h-18z"/>
 <path opacity=".2" d="m2 21.5c-0.554 0-1-0.446-1-1v-0.5c0 0.554 0.446 1 1 1h18c0.554 0 1-0.446 1-1v0.5c0 0.554-0.446 1-1 1h-18z"/>
 <path fill="#6046A6" d="m6 6v10h10v-10h-10zm2 2h6v6h-6v-6z"/>
 <rect opacity=".2" width="7" height="7" x="4" y="12.5"/>
 <rect fill="#7B63C4" width="7" height="7" x="4" y="12"/>
 <rect opacity=".2" width="7" height="5" x="4" y="4.5"/>
 <rect fill="#8D4FB3" width="7" height="5" x="4" y="4"/>
 <circle opacity=".2" cx="15.5" cy="7" r="2.5"/>
 <circle fill="#D33A52" cx="15.5" cy="6.5" r="2.5"/>
 <rect opacity=".2" width="6" height="5" x="12" y="13.5"/>
 <rect fill="#C4A45A" width="6" height="5" x="12" y="13"/>
</svg>
