<svg xmlns="http://www.w3.org/2000/svg" width="22" height="22" version="1">
 <circle opacity=".2" cx="11" cy="11.5" r="10"/>
 <circle fill="#2B2238" cx="11" cy="11" r="10"/>
 <circle fill="#F1E8D2" opacity=".1" cx="-10.5" cy="-11" r="8" transform="matrix(0,-1,-1,0,0,0)"/>
 <circle fill="#2B2238" cx="-11" cy="-11" r="8" transform="matrix(0,-1,-1,0,0,0)"/>
 <circle fill="#7B5A2C" cx="-11" cy="-11" r="6" transform="matrix(0,-1,-1,0,0,0)"/>
 <circle fill="#2B2238" cx="-11" cy="-11" r="3" transform="matrix(0,-1,-1,0,0,0)"/>
 <path fill="#F1E8D2" opacity=".1" d="m11 1a10 10 0 0 0 -10 10 10 10 0 0 0 0.0098 0.293 10 10 0 0 1 9.9902 -9.793 10 10 0 0 1 9.99 9.707 10 10 0 0 0 0.01 -0.207 10 10 0 0 0 -10 -10z"/>
</svg>
