<svg xmlns="http://www.w3.org/2000/svg" width="22" height="22" version="1">
 <rect fill="#E6D7A8" width="20" height="20" x="-21" y="-21" rx="1" ry="1" transform="matrix(0,-1,-1,0,0,0)"/>
 <path fill="#F1E8D2" opacity=".2" d="m2 1c-0.554 0-1 0.446-1 1v0.5c0-0.554 0.446-1 1-1h18c0.554 0 1 0.446 1 1v-0.5c0-0.554-0.446-1-1-1h-18z"/>
 <path opacity=".2" d="m2 21.5c-0.554 0-1-0.446-1-1v-0.5c0 0.554 0.446 1 1 1h18c0.554 0 1-0.446 1-1v0.5c0 0.554-0.446 1-1 1h-18z"/>
 <path fill="#6046A6" d="m10 8v5h-6.5v1h7.5v-5h7.5v-1h-7.5z"/>
 <circle fill="#6046A6" cx="3.5" cy="13.5" r="1.5"/>
 <circle fill="#6046A6" cx="10.5" cy="13.5" r="1.5"/>
 <circle fill="#6046A6" cx="10.5" cy="8.5" r="1.5"/>
 <circle fill="#6046A6" cx="18.5" cy="8.5" r="1.5"/>
</svg>
