<svg xmlns="http://www.w3.org/2000/svg" width="22" height="22" version="1">
 <path fill="#D33A52" d="m1.5 1h5c0.277 0 0.5 0.223 0.5 0.5v5c0 0.277-0.223 0.5-0.5 0.5h-5c-0.277 0-0.5-0.223-0.5-0.5v-5c0-0.277 0.223-0.5 0.5-0.5z"/>
 <rect fill="#A98745" width="6" height="6" x="8" y="1" rx=".5" ry=".5"/>
 <path fill="#A98745" d="m15.5 1h5c0.277 0 0.5 0.223 0.5 0.5v5c0 0.277-0.223 0.5-0.5 0.5h-5c-0.277 0-0.5-0.223-0.5-0.5v-5c0-0.277 0.223-0.5 0.5-0.5z"/>
 <path fill="#A98745" d="m1.5 8h5c0.277 0 0.5 0.223 0.5 0.5v5c0 0.277-0.223 0.5-0.5 0.5h-5c-0.277 0-0.5-0.223-0.5-0.5v-5c0-0.277 0.223-0.5 0.5-0.5z"/>
 <rect fill="#6046A6" width="6" height="6" x="8" y="8" rx=".5" ry=".5"/>
 <path fill="#A98745" d="m15.5 8h5c0.277 0 0.5 0.223 0.5 0.5v5c0 0.277-0.223 0.5-0.5 0.5h-5c-0.277 0-0.5-0.223-0.5-0.5v-5c0-0.277 0.223-0.5 0.5-0.5z"/>
 <path fill="#6046A6" d="m1.5 15h5c0.277 0 0.5 0.223 0.5 0.5v5c0 0.277-0.223 0.5-0.5 0.5h-5c-0.277 0-0.5-0.223-0.5-0.5v-5c0-0.277 0.223-0.5 0.5-0.5z"/>
 <rect fill="#A98745" width="6" height="6" x="8" y="15" rx=".5" ry=".5"/>
 <path fill="#D33A52" d="m15.5 15h5c0.277 0 0.5 0.223 0.5 0.5v5c0 0.277-0.223 0.5-0.5 0.5h-5c-0.277 0-0.5-0.223-0.5-0.5v-5c0-0.277 0.223-0.5 0.5-0.5z"/>
 <path opacity=".2" d="m1 6.5v0.5c0 0.277 0.223 0.5 0.5 0.5h5c0.277 0 0.5-0.223 0.5-0.5v-0.5c0 0.277-0.223 0.5-0.5 0.5h-5c-0.277 0-0.5-0.223-0.5-0.5zm7 0v0.5c0 0.277 0.223 0.5 0.5 0.5h5c0.277 0 0.5-0.223 0.5-0.5v-0.5c0 0.277-0.223 0.5-0.5 0.5h-5c-0.277 0-0.5-0.223-0.5-0.5zm7 0v0.5c0 0.277 0.223 0.5 0.5 0.5h5c0.277 0 0.5-0.223 0.5-0.5v-0.5c0 0.277-0.223 0.5-0.5 0.5h-5c-0.277 0-0.5-0.223-0.5-0.5zm-14 7v0.5c0 0.277 0.223 0.5 0.5 0.5h5c0.277 0 0.5-0.223 0.5-0.5v-0.5c0 0.277-0.223 0.5-0.5 0.5h-5c-0.277 0-0.5-0.223-0.5-0.5zm7 0v0.5c0 0.277 0.223 0.5 0.5 0.5h5c0.277 0 0.5-0.223 0.5-0.5v-0.5c0 0.277-0.223 0.5-0.5 0.5h-5c-0.277 0-0.5-0.223-0.5-0.5zm7 0v0.5c0 0.277 0.223 0.5 0.5 0.5h5c0.277 0 0.5-0.223 0.5-0.5v-0.5c0 0.277-0.223 0.5-0.5 0.5h-5c-0.277 0-0.5-0.223-0.5-0.5zm-14 7v0.5c0 0.277 0.223 0.5 0.5 0.5h5c0.277 0 0.5-0.223 0.5-0.5v-0.5c0 0.277-0.223 0.5-0.5 0.5h-5c-0.277 0-0.5-0.223-0.5-0.5zm7 0v0.5c0 0.277 0.223 0.5 0.5 0.5h5c0.277 0 0.5-0.223 0.5-0.5v-0.5c0 0.277-0.223 0.5-0.5 0.5h-5c-0.277 0-0.5-0.223-0.5-0.5zm7 0v0.5c0 0.277 0.223 0.5 0.5 0.5h5c0.277 0 0.5-0.223 0.5-0.5v-0.5c0 0.277-0.223 0.5-0.5 0.5h-5c-0.277 0-0.5-0.223-0.5-0.5z"/>
 <path fill="#F1E8D2" opacity=".2" d="m1.5 1c-0.277 0-0.5 0.223-0.5 0.5v0.5c0-0.277 0.223-0.5 0.5-0.5h5c0.277 0 0.5 0.223 0.5 0.5v-0.5c0-0.277-0.223-0.5-0.5-0.5h-5zm7 0c-0.277 0-0.5 0.223-0.5 0.5v0.5c0-0.277 0.223-0.5 0.5-0.5h5c0.277 0 0.5 0.223 0.5 0.5v-0.5c0-0.277-0.223-0.5-0.5-0.5h-5zm7 0c-0.277 0-0.5 0.223-0.5 0.5v0.5c0-0.277 0.223-0.5 0.5-0.5h5c0.277 0 0.5 0.223 0.5 0.5v-0.5c0-0.277-0.223-0.5-0.5-0.5h-5zm-14 7c-0.277 0-0.5 0.223-0.5 0.5v0.5c0-0.277 0.223-0.5 0.5-0.5h5c0.277 0 0.5 0.223 0.5 0.5v-0.5c0-0.277-0.223-0.5-0.5-0.5h-5zm7 0c-0.277 0-0.5 0.223-0.5 0.5v0.5c0-0.277 0.223-0.5 0.5-0.5h5c0.277 0 0.5 0.223 0.5 0.5v-0.5c0-0.277-0.223-0.5-0.5-0.5h-5zm7 0c-0.277 0-0.5 0.223-0.5 0.5v0.5c0-0.277 0.223-0.5 0.5-0.5h5c0.277 0 0.5 0.223 0.5 0.5v-0.5c0-0.277-0.223-0.5-0.5-0.5h-5zm-14 7c-0.277 0-0.5 0.223-0.5 0.5v0.5c0-0.277 0.223-0.5 0.5-0.5h5c0.277 0 0.5 0.223 0.5 0.5v-0.5c0-0.277-0.223-0.5-0.5-0.5h-5zm7 0c-0.277 0-0.5 0.223-0.5 0.5v0.5c0-0.277 0.223-0.5 0.5-0.5h5c0.277 0 0.5 0.223 0.5 0.5v-0.5c0-0.277-0.223-0.5-0.5-0.5h-5zm7 0c-0.277 0-0.5 0.223-0.5 0.5v0.5c0-0.277 0.223-0.5 0.5-0.5h5c0.277 0 0.5 0.223 0.5 0.5v-0.5c0-0.277-0.223-0.5-0.5-0.5h-5z"/>
</svg>
