<svg xmlns="http://www.w3.org/2000/svg" width="22" height="22" version="1">
 <rect style="fill:#6046A6" width="20" height="20" x="-21" y="-21" rx="1" ry="1" transform="matrix(0,-1,-1,0,0,0)"/>
 <path style="opacity:0.1;fill:#F1E8D2" d="M 1,2.5 1,2 C 1,1.446 1.446,1 2,1 l 18,0 c 0.554,0 1,0.446 1,1 l 0,0.5 c 0,-0.554 -0.446,-1 -1,-1 l -18,0 c -0.554,0 -1,0.446 -1,1 z"/>
 <path style="opacity:0.2" d="m 1,20 0,0.5 c 0,0.554 0.446,1 1,1 l 18,0 c 0.554,0 1,-0.446 1,-1 L 21,20 c 0,0.554 -0.446,1 -1,1 L 2,21 C 1.446,21 1,20.554 1,20 Z"/>
 <rect style="fill:#A98745" width="2" height="2" x="5" y="11"/>
 <rect style="fill:#D33A52" width="2" height="2" x="7" y="11"/>
 <rect style="fill:#7B63C4" width="2" height="2" x="9" y="11"/>
 <rect style="fill:#A98745" width="2" height="2" x="11" y="11"/>
 <rect style="fill:#7B5A2C" width="2" height="2" x="13" y="11"/>
 <rect style="fill:#F1E8D2" width="2" height="2" x="15" y="11"/>
 <rect style="fill:#7B63C4" width="2" height="2" x="5" y="9"/>
 <rect style="fill:#F1E8D2" width="2" height="2" x="7" y="9"/>
 <rect style="fill:#A98745" width="2" height="2" x="9" y="9"/>
 <rect style="fill:#F1E8D2" width="2" height="2" x="11" y="9"/>
 <rect style="fill:#A98745" width="2" height="2" x="13" y="9"/>
 <rect style="fill:#7B63C4" width="2" height="2" x="15" y="9"/>
 <rect style="fill:#F1E8D2" width="2" height="2" x="5" y="7"/>
 <rect style="fill:#A98745" width="2" height="2" x="7" y="7"/>
 <rect style="fill:#7B5A2C" width="2" height="2" x="9" y="7"/>
 <rect style="fill:#8D4FB3" width="2" height="2" x="11" y="7"/>
 <rect style="fill:#A98745" width="2" height="2" x="13" y="7"/>
 <rect style="fill:#7B5A2C" width="2" height="2" x="7" y="13"/>
 <rect style="fill:#8D4FB3" width="2" height="2" x="9" y="13"/>
 <rect style="fill:#D33A52" width="2" height="2" x="11" y="13"/>
 <rect style="fill:#A98745" width="2" height="2" x="13" y="13"/>
 <rect style="fill:#D33A52" width="2" height="2" x="15" y="13"/>
 <rect style="fill:#7B63C4" width="2" height="2" x="9" y="15"/>
 <rect style="fill:#F1E8D2" width="2" height="2" x="11" y="15"/>
 <rect style="fill:#A98745" width="2" height="2" x="13" y="15"/>
 <rect style="fill:#8D4FB3" width="2" height="2" x="15" y="15"/>
 <rect style="fill:#7B5A2C" width="2" height="2" x="5" y="5"/>
 <rect style="fill:#D33A52" width="2" height="2" x="7" y="5"/>
 <rect style="fill:#A98745" width="2" height="2" x="9" y="5"/>
 <rect style="fill:#7B63C4" width="2" height="2" x="11" y="5"/>
 <path style="opacity:0.2" d="m 5,7 0,0.5 10,0 0,-0.5 z m 0,2 0,0.5 12,0 0,-0.5 z m 0,2 0,0.5 12,0 0,-0.5 z m 0,2 0,0.5 12,0 0,-0.5 z m 2,2 0,0.5 10,0 0,-0.5 z m 2,2 0,0.5 8,0 0,-0.5 z"/>
</svg>
