<svg xmlns="http://www.w3.org/2000/svg" width="22" height="22" version="1">
 <rect fill="#2B2238" width="20" height="20" x="-21" y="-21" rx="1" ry="1" transform="matrix(0,-1,-1,0,0,0)"/>
 <path fill="#F1E8D2" opacity=".1" d="m2 1c-0.554 0-1 0.446-1 1v0.5c0-0.554 0.446-1 1-1h18c0.554 0 1 0.446 1 1v-0.5c0-0.554-0.446-1-1-1h-18z"/>
 <path opacity=".2" d="m2 21.5c-0.554 0-1-0.446-1-1v-0.5c0 0.554 0.446 1 1 1h18c0.554 0 1-0.446 1-1v0.5c0 0.554-0.446 1-1 1h-18z"/>
 <path fill="none" stroke="#191522" stroke-linecap="round" stroke-linejoin="round" stroke-width="2.5" opacity=".2" d="m14.75 7.75v-1.5h-7.5v2.5l7.5 5.5v2.5h-7.5v-1.5"/>
 <path fill="none" stroke="#D33A52" stroke-linecap="round" stroke-linejoin="round" stroke-width="2.5" d="m14.75 7.25v-1.5h-7.5v2.5l7.5 5.5v2.5h-7.5v-1.5"/>
</svg>
