<svg xmlns="http://www.w3.org/2000/svg" width="96" height="48" viewBox="0 0 96 48">
  <rect id="hint-stretch-borders" x="-8" y="-8" width="4" height="4" opacity="0.01"/>
  <rect id="hint-top-margin" x="44" y="0" width="8" height="5" opacity="0.01"/>
  <rect id="hint-bottom-margin" x="44" y="43" width="8" height="5" opacity="0.01"/>
  <rect id="hint-left-margin" x="0" y="20" width="8" height="8" opacity="0.01"/>
  <rect id="hint-right-margin" x="88" y="20" width="8" height="8" opacity="0.01"/>
  <rect id="center" x="8" y="5" width="80" height="38" fill="#171020" fill-opacity="0.86"/>
  <rect id="top" x="8" y="0" width="80" height="5" fill="#171020" fill-opacity="0.86"/>
  <rect id="bottom" x="8" y="43" width="80" height="5" fill="#171020" fill-opacity="0.86"/>
  <rect id="left" x="0" y="5" width="8" height="38" fill="#171020" fill-opacity="0.86"/>
  <rect id="right" x="88" y="5" width="8" height="38" fill="#171020" fill-opacity="0.86"/>
  <rect id="topleft" x="0" y="0" width="8" height="5" fill="#171020" fill-opacity="0.86"/>
  <rect id="topright" x="88" y="0" width="8" height="5" fill="#171020" fill-opacity="0.86"/>
  <rect id="bottomleft" x="0" y="43" width="8" height="5" fill="#171020" fill-opacity="0.86"/>
  <rect id="bottomright" x="88" y="43" width="8" height="5" fill="#171020" fill-opacity="0.86"/>
  <rect id="floating-hint-top-margin" x="152" y="0" width="8" height="5" opacity="0.01"/>
  <rect id="floating-hint-bottom-margin" x="152" y="43" width="8" height="5" opacity="0.01"/>
  <rect id="floating-hint-left-margin" x="108" y="20" width="8" height="8" opacity="0.01"/>
  <rect id="floating-hint-right-margin" x="196" y="20" width="8" height="8" opacity="0.01"/>
  <rect id="floating-center" x="116" y="5" width="80" height="38" fill="#171020" fill-opacity="0.90"/>
  <rect id="floating-top" x="116" y="0" width="80" height="5" fill="#171020" fill-opacity="0.90"/>
  <rect id="floating-bottom" x="116" y="43" width="80" height="5" fill="#171020" fill-opacity="0.90"/>
  <rect id="floating-left" x="108" y="5" width="8" height="38" fill="#171020" fill-opacity="0.90"/>
  <rect id="floating-right" x="196" y="5" width="8" height="38" fill="#171020" fill-opacity="0.90"/>
  <rect id="floating-topleft" x="108" y="0" width="8" height="5" fill="#171020" fill-opacity="0.90"/>
  <rect id="floating-topright" x="196" y="0" width="8" height="5" fill="#171020" fill-opacity="0.90"/>
  <rect id="floating-bottomleft" x="108" y="43" width="8" height="5" fill="#171020" fill-opacity="0.90"/>
  <rect id="floating-bottomright" x="196" y="43" width="8" height="5" fill="#171020" fill-opacity="0.90"/>
  <rect id="thick-hint-top-margin" x="260" y="0" width="8" height="7" opacity="0.01"/>
  <rect id="thick-hint-bottom-margin" x="260" y="41" width="8" height="7" opacity="0.01"/>
  <rect id="thick-hint-left-margin" x="216" y="20" width="10" height="8" opacity="0.01"/>
  <rect id="thick-hint-right-margin" x="302" y="20" width="10" height="8" opacity="0.01"/>
  <rect id="thick-center" x="226" y="7" width="76" height="34" fill="#171020" fill-opacity="0.90"/>
  <rect id="thick-top" x="226" y="0" width="76" height="7" fill="#171020" fill-opacity="0.90"/>
  <rect id="thick-bottom" x="226" y="41" width="76" height="7" fill="#171020" fill-opacity="0.90"/>
  <rect id="thick-left" x="216" y="7" width="10" height="34" fill="#171020" fill-opacity="0.90"/>
  <rect id="thick-right" x="302" y="7" width="10" height="34" fill="#171020" fill-opacity="0.90"/>
  <rect id="thick-topleft" x="216" y="0" width="10" height="7" fill="#171020" fill-opacity="0.90"/>
  <rect id="thick-topright" x="302" y="0" width="10" height="7" fill="#171020" fill-opacity="0.90"/>
  <rect id="thick-bottomleft" x="216" y="41" width="10" height="7" fill="#171020" fill-opacity="0.90"/>
  <rect id="thick-bottomright" x="302" y="41" width="10" height="7" fill="#171020" fill-opacity="0.90"/>
</svg>
